<?xml version="1.0" encoding="utf-8"?>
<!-- Generator: Adobe Illustrator 26.4.1, SVG Export Plug-In . SVG Version: 6.00 Build 0)  -->
<svg version="1.1" id="圖層_1" xmlns="http://www.w3.org/2000/svg" xmlns:xlink="http://www.w3.org/1999/xlink" x="0px" y="0px"
	 viewBox="0 0 400 300" style="enable-background:new 0 0 400 300;" xml:space="preserve">
<style type="text/css">
	.st0{display:none;}
	.st1{display:inline;}
	.st2{opacity:0.15;fill:url(#SVGID_1_);enable-background:new    ;}
	.st3{opacity:0.1;fill:url(#SVGID_00000059300860799175331030000001685517820713385384_);enable-background:new    ;}
	.st4{fill:url(#SVGID_00000016792121718820356540000002249611488005781389_);}
	.st5{opacity:0.15;fill:url(#SVGID_00000181807301163979879540000008817820268806324671_);enable-background:new    ;}
	.st6{fill:#F29300;}
	.st7{fill:#1156A6;}
	.st8{fill:url(#SVGID_00000080897169722866365440000008147824346572665528_);}
	.st9{fill:url(#SVGID_00000054954953748858493510000015322133271566075026_);}
	.st10{opacity:0.5;fill:url(#SVGID_00000032608967929141104390000002068133658928163972_);enable-background:new    ;}
	.st11{opacity:0.6;fill:url(#SVGID_00000162312386522205402680000006313631533430955670_);enable-background:new    ;}
	.st12{opacity:0.6;fill:url(#SVGID_00000007402881177718301960000007677650523509313725_);enable-background:new    ;}
	.st13{fill:#333333;}
	.st14{fill:#F39801;}
	
		.st15{clip-path:url(#SVGID_00000018197641364420728950000012086106681803500445_);fill:url(#SVGID_00000003078456201610259150000017468391248002486460_);}
	
		.st16{clip-path:url(#SVGID_00000081606870499986214530000006981268228417967489_);fill:url(#SVGID_00000008863438890487022180000002101904580414381729_);}
	
		.st17{clip-path:url(#SVGID_00000072997315625350349190000011913743856568037024_);fill:url(#SVGID_00000103945169773374163120000008348195835770840467_);}
	
		.st18{clip-path:url(#SVGID_00000075877460750044917000000001496823839623169164_);fill:url(#SVGID_00000096041740476136905190000006731491785857034906_);}
	
		.st19{clip-path:url(#SVGID_00000048493637946821317700000014849709886304867993_);fill:url(#SVGID_00000059990561664866723080000018414534470758378900_);}
	
		.st20{clip-path:url(#SVGID_00000150814079748543847480000002498621581766710924_);fill:url(#SVGID_00000094614194019152427930000015417351822807978676_);}
	
		.st21{clip-path:url(#SVGID_00000169527107223438585720000012060395333977622919_);fill:url(#SVGID_00000145769358055367082340000007267335425518916245_);}
	
		.st22{clip-path:url(#SVGID_00000044141332993525462160000010595777653753621159_);fill:url(#SVGID_00000094615055144890678920000016879334450460502951_);}
	
		.st23{clip-path:url(#SVGID_00000078015350417942722690000016450065513137343366_);fill:url(#SVGID_00000113350129887538849420000001189663386739203738_);}
</style>
<g id="圖層_2_1_" class="st0">
	<text transform="matrix(1 0 0 1 -6.9482 103.4754)" class="st1" style="font-family:'ArialMT'; font-size:1.0782px;">Logo</text>
	<text transform="matrix(1 0 0 1 -4.3954 103.4754)" class="st1" style="font-family:'ArialMT'; font-size:1.0782px;"> </text>
	
		<text transform="matrix(1 0 0 1 -4.1259 105.0486)" class="st1" style="font-family:'AdobeMingStd-Light-B5pc-H'; font-size:1.0782px;">放置處</text>
	<g class="st1">
		
			<linearGradient id="SVGID_1_" gradientUnits="userSpaceOnUse" x1="534.5727" y1="-746.9843" x2="533.2399" y2="-745.5181" gradientTransform="matrix(1 0 0 -1 -542.2598 -642.8547)">
			<stop  offset="0" style="stop-color:#231815;stop-opacity:0"/>
			<stop  offset="1" style="stop-color:#231815"/>
		</linearGradient>
		<polygon class="st2" points="-8.1,102.7 -6.8,103.8 -7.9,105 -9,104 -8.8,103.4 -8.8,102.9 		"/>
		
			<linearGradient id="SVGID_00000004522797229628000440000006692807319677965447_" gradientUnits="userSpaceOnUse" x1="532.944" y1="-745.5478" x2="532.3279" y2="-744.8697" gradientTransform="matrix(1 0 0 -1 -542.2598 -642.8547)">
			<stop  offset="0" style="stop-color:#231815;stop-opacity:0"/>
			<stop  offset="1" style="stop-color:#231815"/>
		</linearGradient>
		
			<polygon style="opacity:0.1;fill:url(#SVGID_00000004522797229628000440000006692807319677965447_);enable-background:new    ;" points="
			-9.7,101.9 -9,102.6 -9.5,102.9 -9.9,102.5 		"/>
		<g>
			<g>
				
					<linearGradient id="SVGID_00000082362984678823733220000010281460197738553265_" gradientUnits="userSpaceOnUse" x1="533.1631" y1="-746.4116" x2="532.0648" y2="-745.4901" gradientTransform="matrix(1 0 0 -1 -541.7871 -642.8547)">
					<stop  offset="3.548400e-04" style="stop-color:#FFFFFF;stop-opacity:0"/>
					<stop  offset="0.47" style="stop-color:#82BF25;stop-opacity:0.5"/>
					<stop  offset="1" style="stop-color:#4FB233"/>
				</linearGradient>
				<path style="fill:url(#SVGID_00000082362984678823733220000010281460197738553265_);" d="M-8.4,101.9c-0.6,0-1.4,0.5-1.9,1.1
					c-0.5,0.6-0.4,1.1,0.1,1.1s1.4-0.5,1.9-1.1C-7.8,102.4-7.8,101.9-8.4,101.9z M-8.3,103c-0.4,0.5-1.2,0.9-1.7,0.9
					s-0.6-0.4-0.2-0.9c0.4-0.5,1.1-0.9,1.6-0.9S-8,102.5-8.3,103z"/>
			</g>
		</g>
		
			<linearGradient id="SVGID_00000031888783629160995710000003299096725531483053_" gradientUnits="userSpaceOnUse" x1="533.3953" y1="-746.1403" x2="532.631" y2="-745.3759" gradientTransform="matrix(1 0 0 -1 -542.2598 -642.8547)">
			<stop  offset="0" style="stop-color:#231815;stop-opacity:0"/>
			<stop  offset="1" style="stop-color:#231815"/>
		</linearGradient>
		
			<polygon style="opacity:0.15;fill:url(#SVGID_00000031888783629160995710000003299096725531483053_);enable-background:new    ;" points="
			-10,103.3 -9.2,104.1 -8,103 -8.9,102.3 		"/>
		<path class="st6" d="M-8.5,103c0.1,0,0.3,0,0.3,0c0.1,0,0.2-0.1,0.2-0.2l0,0c0-0.1-0.1-0.2-0.2-0.2h-0.9l0,0h-0.1
			c0,0-0.1,0.1-0.1,0.2s0,0.1,0.1,0.2h0.1H-9c0.1,0,0.2,0.1,0.2,0.1v0.1c0,0.1-0.1,0.1-0.1,0.1c0,0.2,0,0.5,0,0.5
			c-0.1,0.2-0.1,0.3,0,0.3h0.1c0.1,0,0.2-0.1,0.2-0.2v-0.3c0-0.1,0.1-0.1,0.1-0.1c0.1,0,0.1,0,0.1,0c0,0.1,0,0.1,0.1,0.1h0.1
			c0.1,0,0.2-0.1,0.2-0.2l0,0c0-0.1-0.1-0.2-0.2-0.2h-0.1c-0.1,0-0.1,0.1-0.1,0.1s0,0.1-0.1,0.1c0,0-0.1,0-0.1-0.1
			S-8.6,103.2-8.5,103C-8.6,103-8.6,103-8.5,103z"/>
		<path class="st7" d="M-8.9,103.3L-8.9,103.3c0-0.2-0.1-0.2-0.2-0.2h-0.1h-0.1c0,0-0.1-0.1-0.1-0.2c0-0.1,0-0.1,0.1-0.2h0.1l0,0
			l0,0c0.1,0,0.2-0.1,0.2-0.2v-0.1c0-0.1-0.1-0.2-0.2-0.2h0.1c-0.1,0-0.2,0.1-0.2,0.2c0,0,0,0,0,0.1c0,0.1-0.1,0.2-0.2,0.2
			c-0.1,0-0.1,0-0.2-0.1v-0.1c0-0.1,0-0.4,0-0.4c0-0.1-0.1-0.2-0.2-0.2l0,0c-0.1,0-0.2,0.1-0.2,0.2v0.8l0,0v0.4
			c0,0.1,0.1,0.2,0.2,0.2h0.1c0.1,0,0.2-0.1,0.2-0.2s0-0.1,0-0.1s0.1-0.1,0.2-0.1c0-0.1,0.1,0,0.1,0.1v0.1c0,0.1,0.1,0.1,0.2,0.1
			L-8.9,103.3L-8.9,103.3C-9,103.4-8.9,103.3-8.9,103.3z"/>
		
			<linearGradient id="SVGID_00000181779444695100226680000001908658133450156451_" gradientUnits="userSpaceOnUse" x1="532.4568" y1="-745.2158" x2="532.4568" y2="-744.8468" gradientTransform="matrix(1 0 0 -1 -542.2598 -642.8547)">
			<stop  offset="0" style="stop-color:#FFFFFF;stop-opacity:0"/>
			<stop  offset="1" style="stop-color:#FFFFFF"/>
		</linearGradient>
		<path style="fill:url(#SVGID_00000181779444695100226680000001908658133450156451_);" d="M-9.7,102.3c0-0.1,0-0.2,0-0.2
			c0-0.1-0.1-0.1-0.1-0.1h-0.1c-0.1,0-0.1,0.1-0.1,0.1v0.2H-9.7z"/>
		
			<linearGradient id="SVGID_00000077289697277271514640000008485023445662840720_" gradientUnits="userSpaceOnUse" x1="533.2568" y1="-745.4463" x2="533.2568" y2="-745.2374" gradientTransform="matrix(1 0 0 -1 -542.2598 -642.8547)">
			<stop  offset="0" style="stop-color:#FFFFFF;stop-opacity:0"/>
			<stop  offset="1" style="stop-color:#FFFFFF"/>
		</linearGradient>
		<path style="fill:url(#SVGID_00000077289697277271514640000008485023445662840720_);" d="M-9,102.3L-9,102.3
			c-0.1,0-0.2,0.1-0.2,0.1l0,0l0,0h0.3l0,0l0,0C-8.9,102.3-9,102.3-9,102.3z"/>
		
			<linearGradient id="SVGID_00000002364992337263134430000012372553873530873772_" gradientUnits="userSpaceOnUse" x1="533.6276" y1="-745.8701" x2="533.6276" y2="-745.6261" gradientTransform="matrix(1 0 0 -1 -542.2598 -642.8547)">
			<stop  offset="0" style="stop-color:#FFFFFF;stop-opacity:0"/>
			<stop  offset="1" style="stop-color:#FFFFFF"/>
		</linearGradient>
		<path style="opacity:0.5;fill:url(#SVGID_00000002364992337263134430000012372553873530873772_);enable-background:new    ;" d="
			M-8.2,102.7h-0.9l0,0h-0.1l-0.1,0.1v0.1h1.2C-8.1,102.9-8.1,102.9-8.2,102.7L-8.2,102.7C-8,102.7-8.1,102.7-8.2,102.7z"/>
		
			<linearGradient id="SVGID_00000005249338647005024150000008337516178920824747_" gradientUnits="userSpaceOnUse" x1="534.0192" y1="-746.3461" x2="534.1763" y2="-746.1616" gradientTransform="matrix(1 0 0 -1 -542.2598 -642.8547)">
			<stop  offset="0" style="stop-color:#FFFFFF;stop-opacity:0"/>
			<stop  offset="1" style="stop-color:#FFFFFF"/>
		</linearGradient>
		<path style="opacity:0.6;fill:url(#SVGID_00000005249338647005024150000008337516178920824747_);enable-background:new    ;" d="
			M-8.1,103.5L-8.1,103.5c0-0.1-0.1-0.2-0.1-0.2h-0.1h-0.1C-8.3,103.3-8.2,103.4-8.1,103.5C-8.2,103.5-8.1,103.5-8.1,103.5
			L-8.1,103.5z"/>
		
			<linearGradient id="SVGID_00000137098301563807545190000013950641734935388345_" gradientUnits="userSpaceOnUse" x1="533.2355" y1="-746.0854" x2="533.3326" y2="-746.276" gradientTransform="matrix(1 0 0 -1 -542.2598 -642.8547)">
			<stop  offset="0" style="stop-color:#FFFFFF;stop-opacity:0"/>
			<stop  offset="0.8818" style="stop-color:#FFFFFF;stop-opacity:0.8818"/>
			<stop  offset="1" style="stop-color:#FFFFFF"/>
		</linearGradient>
		<path style="opacity:0.6;fill:url(#SVGID_00000137098301563807545190000013950641734935388345_);enable-background:new    ;" d="
			M-9.1,103.4L-9.1,103.4c0.1,0,0.2-0.1,0.2-0.1v-0.1v-0.1C-9,103.2-9,103.3-9.1,103.4C-9.2,103.3-9.2,103.3-9.1,103.4
			C-9.2,103.4-9.2,103.4-9.1,103.4z"/>
	</g>
</g>
<g>
	<path class="st13" d="M17.2,104.4c0,0.5,0.2,1.1,0.4,1.1h11.3c0.4,0,0.8,0.5,1.2,1.6s0.6,2.2,0.6,3.3s-0.2,2.7-0.6,3.3
		c-0.4,0.5-0.8,1.6-1.2,1.6h-27c-0.4,0-0.8-0.5-1.2-1.6s-0.6-2.2-0.6-3.3s0.2-2.7,0.6-3.3c0.4-0.5,0.8-1.6,1.2-1.6h10.7
		c0.2,0,0.4-0.5,0.4-1.1v-1.6c0-1.6,0.2-2.7,0.6-4.6c0.4-1.8,1-1.6,1.6-1.6s1,0.5,1.6,1.6s0.6,2.7,0.6,4.6
		C17.2,103.1,17.2,104.4,17.2,104.4z M26.5,144.7c0.8,0,1.6,0.5,2.2,2.2c0.6,1.6,0.8,3.3,0.8,5.7V176c0,2.7-0.2,5.1-0.4,6.7
		s-0.8,2.7-1.4,4c-0.6,0.5-1.6,1.1-3,1.6h-0.2c-0.6,0-1.2-0.5-1.8-1.6c-0.6-1.1-1-2.7-1.4-5.1c0-0.5-0.2-0.5-0.4-0.5h-8.5
		c-0.2,0-0.2,0-0.2,0.5c0,1.1-0.2,2.2-0.4,2.7c-0.2,0.5-0.6,1.1-1,1.1h-0.4c-0.6,0-1-0.5-1.2-1.6c-0.2-1.1-0.6-2.2-0.6-4v-12.9
		c0-2.2,0.2-4.6,0.8-5.7c0.6-1.6,1.2-2.2,2.2-2.2H19c0.8,0,1.6,0.5,2.2,2.2s0.8,3.3,0.8,5.7v9.5c0,0.5,0.2,1.1,0.4,1.1
		c0.6,0,1,0,1.4,0s0.8,0,1,0c0.4,0,0.6-0.5,0.6-1.6v-20.6c0-0.5-0.2-1.1-0.4-1.1h-19c-0.2,0-0.4,0.5-0.4,1.1v27.5
		c0,1.6-0.2,2.7-0.6,4c-0.4,1.1-0.8,1.6-1.4,1.6s-1-0.5-1.4-1.6c-0.4-1.1-0.6-2.2-0.6-4v-29.7c0-2.2,0.2-4.6,0.8-5.7
		c0.6-1.6,1.2-2.2,2.2-2.2L26.5,144.7L26.5,144.7z M5.9,127.4c0-2.2,0.2-4.6,0.8-6.2c0.6-1.6,1.2-2.2,2.2-2.2H22
		c0.8,0,1.6,0.5,2.2,2.2c0.6,1.6,0.8,3.3,0.8,6.2v5.1c0,2.2-0.2,4.6-0.8,6.2s-1.2,2.2-2.2,2.2H8.9c-0.8,0-1.6-0.5-2.2-2.2
		c-0.6-1.6-0.8-3.3-0.8-6.2V127.4z M20.4,132.8c0.2,0,0.4-0.5,0.4-1.1v-3.8c0-0.5-0.2-1.1-0.4-1.1H10.3c-0.2,0-0.4,0.5-0.4,1.1v4
		c0,0.5,0.2,1.1,0.4,1.1h10.1V132.8z M18,172.8c0.2,0,0.4-0.5,0.4-1.1v-4.6c0-0.5-0.2-1.1-0.4-1.1h-5.4c-0.2,0-0.4,0.5-0.4,1.1v4.6
		c0,0.5,0.2,1.1,0.4,1.1H18z"/>
	<path class="st13" d="M65.2,176.6c0.6,0,1,0.5,1.4,1.6c0.4,1.1,0.6,2.2,0.6,4s-0.2,2.7-0.6,4c-0.4,1.3-0.8,1.6-1.4,1.6h-9.5
		c0,0-0.2,0-0.2,0.5c0,1.1-0.2,1.6-0.4,2.7c-0.2,1.1-0.6,1.1-1,1.1h-0.6c-0.6,0-1-0.5-1.4-1.6c-0.4-1.1-0.6-2.2-0.6-4v-45.4l0,0
		c0,0,0,0-0.2,0c-0.4,1.1-0.8,2.2-1.4,2.2c-0.6,0-1-0.5-1.4-1.6c-0.2-0.5-0.6-1.6-0.8-2.2h-0.2c0,0-0.2,0-0.2,0.5
		c-1,13.5-1.8,24.6-2.8,34.3v0.5h0.2l2-1.1c0.2,0,0.4-0.5,0.2-1.1c-0.2-2.7-0.4-5.7-0.6-8.4c0-0.5,0-1.1,0-1.1c0-0.5,0-1.6,0.2-2.2
		c0.2-1.1,0.6-2.2,1-2.2c0.2,0,0.4-0.5,0.6-0.5c0.2,0,0.4,0,0.6,0.5c0.4,0.5,0.6,1.1,0.8,2.2c0.6,6.7,1.2,13.5,1.6,19.7
		c0,0.5,0,0.5,0,1.1c0,1.1-0.2,2.2-0.4,2.7c-0.2,1.1-0.6,2.2-1,2.7c-0.2,0-0.4,0.5-0.4,0.5c-0.2,0-0.4,0-0.6-0.5
		c-0.4-0.5-0.6-1.6-0.6-2.7v-0.5c0-0.5-0.2-0.5-0.2-0.5c-1.4,1.1-3,2.2-4.6,4c-0.2,0-0.6,0.5-0.8,0.5c-0.6,0-1-0.5-1.4-1.1
		c-0.8-1.1-1.2-2.7-1.6-5.1l0,0c0,0,0,0-0.2,0c-0.2,0,0,0-0.2,0c-0.2,1.1-0.4,2.7-0.6,4c-0.2,1.1-0.6,2.2-1.2,2.7
		c-0.2,0-0.4,0.5-0.6,0.5c-0.4,0-0.6,0-1-0.5s-0.8-1.6-1-3.3c0-0.5-0.2-1.1-0.2-1.6c0-0.5,0-1.6,0.2-2.2c2.4-14,3.8-31.4,4.2-51.6
		V129l-0.2-0.5h-1.6c-0.6,0-1-0.5-1.4-1.6c-0.4-1.1-0.6-5.7-0.6-7.3c0-1.6,0.2-2.7,0.6-4c0.4-1.1,0.8-1.6,1.4-1.6h2
		c0.2,0,0.4-0.5,0.4-1.1v-4.6V105c0-1.6,0.2-2.7,0.6-4c0.4-1.1,0.8-1.6,1.4-1.6c0.6,0,1,0.5,1.4,1.6s0.6,2.2,0.6,4v3.3v5.1
		c0,0.5,0.2,1.1,0.4,1.1h4.8c0.6,0,1.2,0.5,1.8,2.2c0.4,1.1,0.8,2.7,0.8,5.1l0,0l0,0c1-5.1,1.8-10.6,2.4-16.8c0.2-1.6,0.6-2.7,1-3.3
		c0.4-0.5,0.6-0.5,1-0.5c0.2,0,0.4,0,0.4,0c0.6,0.5,1,1.1,1.2,2.7c0.2,0.5,0.2,1.6,0.2,2.2c0,0.5,0,1.1-0.2,1.6
		c-0.4,3.3-0.8,6.7-1.4,10v0.5l0.2,0.5h2.2c0.2,0,0.4-0.5,0.4-1.1c0.6-3.3,1-7.3,1.6-11.1c0.2-1.6,0.6-2.7,1-3.3
		c0.4-0.5,0.6-0.5,1-0.5c0.2,0,0.4,0,0.6,0.5c0.6,0.5,0.8,1.1,1.2,2.7c0.2,0.5,0.2,1.6,0.2,2.2c0,0.5,0,1.1-0.2,2.2
		c-0.6,3.3-1,6.2-1.4,8.4v0.5l0.2,0.5h2c0.6,0,1,0.5,1.2,1.6c0.4,1.1,0.6,2.2,0.6,4c0,1.8-0.2,2.7-0.6,4c-0.4,1.1-0.8,1.6-1.2,1.6
		h-2c-0.2,0-0.4,0.5-0.4,1.1v7.3c0,0.5,0.2,1.1,0.4,1.1h1.8c0.6,0,1,0.5,1.2,1.6c0.4,1.1,0.6,2.2,0.6,3.3c0,1.1-0.2,2.2-0.6,3.3
		c-0.4,1.1-0.8,1.6-1.2,1.6h-1.8c-0.2,0-0.4,0.5-0.4,1.1v7.3c0,0.5,0.2,1.1,0.4,1.1h1.8c0.6,0,1,0.5,1.2,1.6
		c0.4,1.1,0.6,2.2,0.6,3.3c0,1.1-0.2,2.2-0.6,3.3c-0.4,1.1-0.8,1.6-1.2,1.6h-1.8c-0.2,0-0.4,0.5-0.4,1.1v4c0,0.5,0.2,1.1,0.4,1.1
		h2.4V176.6z M44,140.7c0.2-2.2,0.6-4,1.2-5.1c0.4-1.1,1-1.6,1.6-1.6c0.2,0,0.4,0,0.6,0h0.4c0.2,0,0.4,0,0.6-0.5
		c0.6-2.2,1.2-4.6,2-7.8V125c0,0,0-0.5-0.2-0.5h-6.5c-0.2,0-0.4,0.5-0.4,1.1c-0.4,19.7-1.4,36.5-3.4,49.9v0.5H40l1.4-0.5
		c0.2,0,0.4-0.5,0.4-1.1C42.6,164.4,43.4,153.1,44,140.7z M58.5,138c0.2,0,0.4-0.5,0.4-1.1v-7.3c0-0.5-0.2-1.1-0.4-1.1h-2.6
		c-0.2,0-0.4,0.5-0.4,1.1v7.3c0,0.5,0.2,1.1,0.4,1.1H58.5z M58.5,157.1c0.2,0,0.4-0.5,0.4-1.1v-7.3c0-0.5-0.2-1.1-0.4-1.1h-2.6
		c-0.2,0-0.4,0.5-0.4,1.1v7.3c0,0.5,0.2,1.1,0.4,1.1H58.5z M55.9,166.6c-0.2,0-0.4,0.5-0.4,1.1v7.8c0,0.5,0.2,1.1,0.4,1.1h2.6
		c0.2,0,0.4-0.5,0.4-1.1v-7.8c0-0.5-0.2-1.1-0.4-1.1C58.5,166.6,55.9,166.6,55.9,166.6z"/>
	<path class="st13" d="M101.9,113.3c0.4,1.1,0.6,1.6,0.6,1.6s0,0.5,0,2.2c0,1.6-0.2,2.7-0.6,4c-0.4,1.3-0.8,1.6-1.4,1.6H89
		c-0.2,0-0.4,0.5-0.4,1.1v8.4c0,0.5,0.2,1.1,0.4,1.1h7.7c0.8,0,1.6,0.5,2.2,2.2c0.6,1.6,0.8,3.3,0.8,6.2v24.6c0,2.7-0.2,5.1-0.4,6.7
		c-0.2,1.6-0.8,2.7-1.4,4c-0.6,0.5-1,1.1-1.8,1.1c-0.6,0.5-1.4,0.5-2.4,0.5c0,0,0,0-0.2,0c-0.6,0-1-0.5-1.6-1.6
		c-0.4-1.1-0.8-2.2-1-4.6c0-0.5,0-1.1,0-1.6c0-0.5,0-1.6,0.2-2.2c0.2-1.1,0.6-1.6,1.2-1.6l0,0c0.6,0,1.4,0,2.2,0
		c0.6,0,0.8-0.5,0.8-1.6v-20.8c0-0.5-0.2-1.1-0.4-1.1h-6c-0.2,0-0.4,0.5-0.4,1.1v39.2c0,1.6-0.2,2.7-0.6,4.6c-0.4,1.1-1,1.6-1.6,1.6
		c-0.6,0-1.2-0.5-1.6-1.6c-0.4-1.1-0.6-2.7-0.6-4.6v-39.2c0-0.5-0.2-1.1-0.4-1.1h-5.4c-0.2,0-0.4,0.5-0.4,1.1v27.5
		c0,1.6-0.2,2.7-0.6,4c-0.4,1.1-1,1.6-1.4,1.6c-0.6,0-1-0.5-1.4-1.6c-0.4-1.1-0.6-2.7-0.6-4V142c0-2.2,0.2-4.6,0.8-6.2
		c0.6-1.6,1.2-2.2,2.2-2.2h6.9c0.2,0,0.4-0.5,0.4-1.1v-8.6c0-0.5-0.2-1.1-0.4-1.1H73c-0.6,0-1-0.5-1.4-1.6c-0.4-1.1-0.6-2.2-0.6-4
		s0.2-2.7,0.6-4c0.4-1.1,0.8-1.6,1.4-1.6h11.1c0.2,0,0.4-0.5,0.4-1.1v-5.7c0-1.6,0.2-3.3,0.6-4.6c0.4-1.3,1-1.6,1.6-1.6
		c0.6,0,1.2,0.5,1.6,1.6c0.4,1.1,0.6,2.7,0.6,4.6v5.7c0,0.5,0.2,1.1,0.4,1.1h11.5C100.9,111.7,101.5,112.2,101.9,113.3z"/>
	<path class="st13" d="M137.8,119c0.4,1.1,0.6,1.6,0.6,1.6s0,0.5,0,2.2s-0.2,2.7-0.6,4c-0.4,1.1-0.8,1.6-1.4,1.6l0,0
		c-0.2,0-0.2,0-0.2,0.5c-0.8,15.1-2.2,27-3.8,36.5c-0.2,0.5-0.2,1.1,0,1.6c1.2,4.6,2.8,8.4,4.4,11.1c0.4,1.1,0.8,2.2,0.8,3.3
		c0,0.5,0,0.5,0,1.1c0,1.1-0.2,2.2-0.4,3.3c-0.4,1.6-1,2.2-1.6,2.7c-0.2,0-0.4,0-0.6,0c-0.4,0-0.8-0.5-1.2-1.1
		c-1.6-2.7-2.8-6.7-4.2-10.6c-0.2-0.5-0.2-0.5-0.4,0c-1.4,4.6-3.2,8.4-5,11.8c-0.4,0.5-0.6,0.5-1,0.5c-0.2,0-0.4,0-0.6-0.5
		c-0.6-0.5-1-1.6-1.4-2.7c-0.2-1.1-0.4-1.6-0.4-2.7c0-0.5,0-1.1,0-1.1c0.2-1.6,0.4-2.7,1-3.3c2-3.3,3.6-7.3,5-11.8
		c0.2-0.5,0.2-1.1,0-1.6c-1-5.7-1.8-12.4-2.6-20.2l0,0c0,0,0,0-0.2,0c-0.2,1.1-0.6,1.6-1.2,1.6c0,0,0,0-0.2,0
		c-0.4,0-0.8-0.5-1.2-1.1c-0.2-0.5-0.4-1.1-0.6-1.6l0,0c0,0.5,0,1.1-0.2,1.1h-3.4c-0.2,0-0.4,0.5-0.4,1.1v17.9c0,0,0,0.5,0.2,0.5
		h0.2l2.8-1.6c0.2,0,0.2,0,0.4,0c0.4,0,0.6,0.5,1,1.1c0.4,0.5,0.6,2.2,0.6,3.3v0.5c0,1.1-0.2,2.2-0.4,3.3c-0.4,1.1-0.8,2.2-1.2,2.2
		c-1,0.5-2.2,1.1-3.2,2.2c-1.2,0.5-2.2,1.1-3.2,1.6c-1,0.5-2,1.1-3.2,1.6c-1.2,0.5-2.2,1.1-2.8,1.6c-0.2,0-0.4,0-0.4,0
		c-0.4,0-0.8-0.5-1.2-1.1c-0.4-1.1-0.8-2.2-0.8-4v-1.1c0-0.5,0-0.5,0-1.1c0-1.1,0.2-1.6,0.4-2.7c0.2-1.1,0.6-1.6,1-1.6
		c0.2,0,0.2-0.5,0.2-0.5v-35.5c0-1.6,0.2-2.7,0.6-3.3c0.4-0.5,0.8-1.6,1.4-1.6s1,0.5,1.4,1.6c0.4,1.1,0.6,2.2,0.6,3.3v33.5
		c0,0,0,0.5,0.2,0.5s0.2,0,0.2,0l1.6-1.1c0.2,0,0.4-0.5,0.4-1.1v-48.7c0-0.5-0.2-1.1-0.4-1.1h-4.6c-0.6,0-1-0.5-1.4-1.6
		c-0.4-1.1-0.6-2.2-0.6-4s0.2-2.7,0.6-4c0.4-1.3,0.8-1.6,1.4-1.6h11.9c0.6,0,1,0.5,1.4,1.6c0.4,1.1,0.6,2.2,0.6,4s-0.2,2.7-0.6,4
		c-0.4,1.3-0.8,1.6-1.4,1.6h-2.6c-0.2,0-0.4,0.5-0.4,1.1v15.1c0,0.5,0.2,1.1,0.4,1.1h2.8c0.2,0,0.4,0,0.6,0.5
		c0.2,0.5,0.2,1.1,0.2,1.6l0,0c1.8-7.8,3-17.9,4-30.8c0.2-1.6,0.4-2.7,0.8-4c0.4-0.5,0.8-1.1,1.2-1.1c0.2,0,0.2,0,0.4,0
		c0.6,0,1,1.1,1.4,2.2c0.2,1.1,0.4,2.2,0.4,3.3c0,0.5,0,0.5,0,1.1c-0.2,2.7-0.4,6.2-0.8,9.5v0.5l0.2,0.5h7.5
		C136.8,117.2,137.4,117.7,137.8,119z M127.5,127.9c-0.2,0-0.2,0-0.4,0.5c0,0.5,0,1.1,0,1.1c0.6,8.4,1.4,15.7,2.4,23c0,0,0,0,0.2,0
		s0.2,0,0.2,0c1-6.7,1.8-14.6,2.2-24.1v-0.5l-0.2-0.5h-4.4V127.9z"/>
	<path class="st13" d="M152.9,126.1c0.2-1.6,0.6-2.7,1.2-3.3c0.4-0.5,0.6-0.5,1-0.5c0.2,0,0.4,0,0.6,0c0.6,0.5,1,1.1,1.2,2.7
		c0.2,0.5,0.2,1.6,0.2,2.2c0,0.5,0,1.6-0.2,2.2c-0.4,2.7-1,5.1-1.6,7.8c-0.2,0.5-0.2,1.1-0.2,1.6v46.7c0,1.6-0.2,2.7-0.6,4
		c-0.4,1.1-0.8,1.6-1.4,1.6c-0.6,0-1-0.5-1.4-1.6c-0.4-1.1-0.6-2.2-0.6-4v-31.9v-0.5c0,0,0,0-0.2,0c-0.2,0.5-0.4,1.1-0.6,1.6
		c-0.4,1.1-0.8,1.1-1.2,1.1h-0.2c-0.6,0-1-1.1-1.4-2.2l0,0l0,0c-0.4,12.9-1.2,23.5-2.4,31.9c-0.2,1.6-0.6,2.2-1.2,2.7
		c-0.2,0-0.4,0-0.4,0c-0.4,0-0.8-0.5-1-1.1c-0.6-1.1-0.8-2.2-1-4c0-0.5-0.2-1.6-0.2-2.2c0-0.5,0-1.6,0.2-2.2c1.4-10,2-24.6,2-43.2
		v-18.4c0-2.2,0.2-4.6,0.8-6.2c0.6-1.6,1.2-2.2,2.2-2.2h9.3c0.2,0,0.4-0.5,0.4-1.1V105c0-1.6,0.2-2.7,0.6-4.6c0.4-1.1,1-1.6,1.6-1.6
		c0.6,0,1.2,0.5,1.6,1.6s0.6,2.7,0.6,4.6v3.3c0,0.5,0.2,1.1,0.4,1.1h10.3c0.6,0,1,0.5,1.4,1.6c0.4,1.3,0.6,2.4,0.6,4s-0.2,2.7-0.6,4
		c-0.4,1.3-0.8,1.6-1.4,1.6h-23c-0.2,0-0.4,0.5-0.4,1.1v14.6c0,1.6,0,5.1,0,8.9v0.5h0.2C150.1,140.1,151.7,133.4,152.9,126.1z
		 M171.8,134.1c0.6,0,1,0.5,1.4,1.6c0.4,1.1,0.6,2.2,0.6,4c0,1.8-0.2,2.7-0.6,4c-0.4,1.3-0.8,1.6-1.4,1.6h-1.2
		c-0.2,0-0.4,0.5-0.4,1.1V179c0,2.7-0.2,5.7-0.4,7.3c-0.2,1.6-0.8,2.7-1.4,4c-0.8,1.1-2.2,1.6-4,1.6c0,0,0,0-0.2,0
		c-0.6,0-1-0.5-1.6-1.6c-0.4-1.1-0.8-2.2-1-4.6c0-0.5-0.2-1.1-0.2-1.1c0-0.5,0-1.6,0.2-2.2c0.2-1.1,0.6-1.6,1.2-1.6l0,0
		c0.8,0,1.4,0,2.4,0c0.2,0,0.6,0,0.6-0.5c0-0.5,0.2-0.5,0.2-1.6v-32.8c0-0.5-0.2-1.1-0.4-1.1h-6.7c-0.6,0-1-0.5-1.4-1.6
		c-0.4-1.1-0.6-2.2-0.6-4s0.2-2.7,0.6-4c0.4-1.1,0.8-1.6,1.4-1.6h6.7c0.2,0,0.4-0.5,0.4-1.1v-5.5c0-1.6,0.2-2.7,0.6-4
		s0.8-1.6,1.4-1.6c0.6,0,1,0.5,1.4,1.6s0.6,2.2,0.6,4v5.7c0,0.5,0.2,1.1,0.4,1.1L171.8,134.1L171.8,134.1z M158.3,157.6
		c-0.2-0.5-0.2-1.6-0.2-2.2c0-0.5,0-1.1,0-1.6c0.2-1.1,0.4-2.2,0.8-2.7c0.2-0.5,0.6-0.5,0.8-0.5c0.2,0,0.4,0,0.6,0.5
		c0.6,0.5,0.8,1.1,1.2,2.2c0.6,2.7,1.2,6.2,1.8,8.9c0.2,0.4,0.2,1.5,0.2,2.2c0,0.5,0,1.1-0.2,2.2c-0.2,1.6-0.6,2.2-1,2.7
		c-0.2,0.5-0.4,0.5-0.8,0.5c-0.2,0-0.4,0-0.6-0.5c-0.4-0.5-0.8-1.6-1-2.7C159.7,163.7,159.1,160.4,158.3,157.6z"/>
</g>
<g class="st0">
	<g class="st1">
		<path class="st13" d="M293.7,166.6c-0.1,0-0.3,0.5-0.3,1.1v9.5c0,0.5,0.1,1.1,0.3,1.1h7.3c0.4,0,0.7,0.5,0.8,1.6
			c0.3,1.1,0.4,2.2,0.4,4s-0.1,2.7-0.4,4c-0.3,1.1-0.5,1.6-0.8,1.6h-17.6c-0.4,0-0.7-0.5-0.9-1.6s-0.4-2.2-0.4-4s0.1-2.7,0.4-4
			c0.3-1.1,0.5-1.6,0.9-1.6h6.9c0.1,0,0.3-0.5,0.3-1.1v-9.5c0-0.5-0.1-1.1-0.3-1.1h-5.2c-0.4,0-0.7-0.5-0.8-1.6
			c-0.3-1.1-0.4-2.2-0.4-3.3s0.1-2.7,0.4-3.3c0.3-1.1,0.5-1.6,0.8-1.6h5.2c0.1,0,0.3-0.5,0.3-1.1v-9.5c0-0.5-0.1-1.1-0.3-1.1h-3.4
			c-0.4,0-0.8-0.5-1.2-2.2c-0.3-1.1-0.5-2.7-0.5-5.1c0,0,0,0,0-0.5H285c-0.4,1.1-0.8,2.2-1.2,3.3c-0.3,0.5-0.5,1.1-0.7,1.1
			c-0.1,0-0.3,0-0.4,0c-0.4-0.5-0.7-1.1-0.9-2.7c-0.1-1.1-0.3-2.2-0.3-2.7c0-0.5,0-0.5,0-1.1c0-1.6,0.3-2.7,0.5-3.3
			c1.5-3.3,2.8-7.8,4.2-12.9c1.4-5.1,2.4-10,3.4-14.6c0.5-3.3,1.4-5.1,2.3-5.1c0.9,0,1.8,1.6,2.3,5.1c1.1,5.7,2.3,10.6,3.7,15.1
			c1.4,4.6,2.7,8.4,4.2,11.8c0.4,0.5,0.5,1.6,0.7,3.3c0,0.5,0,1.1,0,1.1c0,1.1-0.1,2.2-0.3,2.7c-0.3,1.6-0.5,2.7-1.1,2.7
			c-0.1,0-0.3,0-0.4,0c-0.3,0-0.5-0.5-0.8-1.1c-0.4-1.1-0.7-1.6-1.1-2.7c0,0,0,0-0.1,0c-0.1,0,0,0,0,0.5c0,1.6-0.1,3.3-0.5,5.1
			s-0.7,2.2-1.2,2.2h-3.7c-0.1,0-0.3,0.5-0.3,1.1v9.5c0,0.5,0.1,1.1,0.3,1.1h5.2c0.4,0,0.7,0.5,0.8,1.6c0.3,1.1,0.4,2.2,0.4,3.3
			c0,1.1-0.1,2.7-0.4,3.3c-0.3,1.1-0.5,1.6-0.8,1.6H293.7L293.7,166.6z M286.2,134.1C286.2,134.1,286.2,134.7,286.2,134.1
			c0,0.5,0,0.5,0,0.5h11.5c0,0,0,0,0.1,0c0,0,0,0,0-0.5c-2.4-7.8-4.5-15.1-5.8-23l-0.1-0.5c0,0-0.1,0-0.1,0.5
			C290.4,119.5,288.5,126.8,286.2,134.1z"/>
		<path class="st13" d="M325.3,146.9c-0.3,1.6-0.7,2.2-1.1,2.7c-0.1,0-0.3,0-0.4,0c-0.3,0-0.7-0.5-0.9-1.1l0,0l0,0
			c0.9,8.9,2.3,16.2,4.1,21.9c0.3,1.1,0.4,2.2,0.4,4c0,1.1-0.1,2.2-0.3,3.3c-0.3,1.1-0.5,1.6-0.8,2.2c-0.1,0-0.1,0-0.3,0
			c-0.3,0-0.5-0.5-0.7-1.1c-1.5-5.1-2.6-11.1-3.5-17.3c0,0,0,0-0.1,0l0,0v15.1c0,2.7-0.1,5.1-0.3,6.7s-0.4,2.7-0.8,4
			c-0.5,1.1-1.4,2.2-2.3,2.2h-0.1c-0.4,0-0.7-0.5-0.9-1.6c-0.3-1.1-0.5-2.2-0.7-4c0-0.5-0.1-1.1-0.1-1.6c0-0.5,0-1.6,0.1-2.2
			c0.1-1.1,0.4-1.6,0.7-1.6l0,0c0.4,0,0.8,0,1.2,0c0.1,0,0.3,0,0.4-0.5c0.1-0.5,0.1-0.5,0.1-1.6v-50.7c0-0.5-0.1-1.1-0.3-1.1h-3.4
			c-0.5,0-0.9-0.5-1.4-2.2c-0.4-1.6-0.5-3.3-0.5-5.7c0-0.5-0.1-1.1-0.3-1.1h-1.9c-0.1,0-0.3,0.5-0.3,1.1v14.6c0,0.5,0.1,1.1,0.3,1.1
			h0.8c0.4,0,0.7,0.5,0.9,1.6c0.3,1.1,0.4,2.2,0.4,4c0,1.8-0.1,2.7-0.4,4c-0.3,1.1-0.5,1.6-0.9,1.6h-0.8c-0.1,0-0.3,0.5-0.3,1.1
			v14.6c0,0,0,0.5,0.1,0.5h0.1c0.3,0,0.5-0.5,0.8-1.1c0.1,0,0.3-0.5,0.4-0.5c0.3,0,0.5,0.5,0.7,1.1c0.4,1.1,0.5,2.2,0.7,4
			c0,0,0,0.5,0.1,0.5h0.1c0.5-1.1,1.4-3.3,2.7-6.7c0.1-0.5,0.4-0.5,0.5-0.5c0.1,0,0.3,0,0.4,0.5c0.3,0.5,0.5,1.1,0.7,2.7
			c0,0.5,0.1,1.6,0.1,2.2s0,1.1-0.1,2.2c-0.1,1.6-0.3,2.7-0.5,3.3c-0.9,2.7-1.9,5.1-2.7,7.8c-0.3,0.5-0.7,1.1-0.9,1.1
			c-0.1,0-0.3,0-0.5,0c-0.5-0.5-0.9-1.6-1.2-4l-0.3-1.6c-0.1-0.5-0.1-0.5-0.3-0.5c-1.2,1.6-2.7,4-4.5,6.2c-0.1,0-0.3,0.5-0.4,0.5
			c-0.3,0-0.4,0-0.7-0.5c-0.3-0.5-0.5-1.6-0.7-3.3c0-0.5,0-1.1,0-1.6c0-1.1,0-1.6,0.1-2.7c0.1-1.1,0.5-2.2,0.8-2.7
			c0.1,0,0.4-0.5,0.8-1.1c0.4-0.5,0.5-0.5,0.7-0.5s0.3-0.5,0.3-1.1v-17.9c0-0.5-0.1-1.1-0.3-1.1h-0.9c-0.4,0-0.7-0.5-0.9-1.6
			c-0.3-1.1-0.4-2.2-0.4-4s0.1-2.7,0.4-4c0.3-1.1,0.5-1.6,0.9-1.6h0.9c0.1,0,0.3-0.5,0.3-1.1v-14.6c0-0.5-0.1-1.1-0.3-1.1H307
			c-0.4,0-0.7-0.5-0.9-1.6s-0.4-2.2-0.4-4c0-1.8,0.1-2.7,0.4-4s0.5-1.6,0.9-1.6h4.7c0.5,0,0.9,0.5,1.4,2.2c0.4,1.6,0.5,3.3,0.5,5.7
			c0,0.5,0.1,1.1,0.3,1.1h4.9c0.1,0,0.3-0.5,0.3-1.1v-10c0-1.6,0.1-2.7,0.4-4c0.3-1.1,0.5-1.6,0.9-1.6s0.7,0.5,0.9,1.6
			s0.4,2.2,0.4,4v10c0,0.5,0.1,1.1,0.3,1.1h3.3c0,0,0.1,0,0.1-0.5c0-0.5,0-0.5,0-0.5c-0.4-2.2-1.1-4.6-1.9-6.7
			c-0.3-0.5-0.4-1.6-0.4-2.7s0.1-1.6,0.3-2.2c0.3-1.1,0.5-1.6,0.8-1.6h0.1c0.3,0,0.5,0.5,0.7,1.1c0.3,1.1,0.7,1.6,0.9,2.7
			c0.4,1.1,0.5,2.7,0.5,5.1s-0.1,4-0.5,5.1l0,0c0,0,0,0,0,0.5c0,0.5,0,0,0.1,0h0.4c0.4,0,0.7,0.5,0.9,1.6s0.4,2.2,0.4,4
			c0,1.6-0.1,2.7-0.4,4c-0.3,1.1-0.5,1.6-0.9,1.6H322c-0.1,0-0.3,0.5-0.3,1.1v1.6c0,0.5,0,1.1,0,1.6c0.3,5.1,0.5,10,0.8,14.6
			c0,0,0,0.5,0.1,0.5h0.1c0.5-3.3,1.2-6.7,1.6-10.6c0.1-1.1,0.4-2.2,0.8-2.7c0.1,0,0.3-0.5,0.4-0.5c0.3,0,0.4,0,0.7,0.5
			c0.3,0.5,0.5,1.6,0.7,3.3c0,0.5,0,0.5,0,1.1c0,1.1-0.1,2.2-0.3,2.7C326.1,142.5,325.7,145.2,325.3,146.9z M317.4,143.1
			c0.1,0.5,0.1,1.6,0.1,2.2s0,1.1-0.1,1.6c-0.1,1.6-0.4,2.2-0.7,2.7c-0.1,0.5-0.3,0.5-0.5,0.5c-0.1,0-0.3,0-0.4-0.5
			c-0.3-0.5-0.5-1.6-0.7-2.7c-0.3-2.7-0.7-5.7-1.1-8.4c-0.1-0.5-0.1-1.6-0.1-2.2s0-0.5,0-1.1c0.1-1.1,0.3-2.2,0.5-2.7
			c0.1-0.5,0.4-0.5,0.5-0.5s0.3,0,0.4,0c0.4,0.5,0.5,1.1,0.8,2.2C316.7,138,317.1,140.7,317.4,143.1z"/>
		<path class="st13" d="M348.7,166c0,2.2-0.1,4.6-0.5,6.2c-0.4,1.6-0.8,2.2-1.5,2.2h-1.9l0,0l0,0c1.6,2.2,3.3,5.1,5,8.4
			c0.3,0.5,0.4,1.6,0.4,2.7c0,1.6-0.1,2.2-0.5,2.7c-0.4,0.5-0.9,1.1-1.4,1.1c-0.5,0-1.2-0.5-1.8-1.6c-0.8-1.6-1.8-3.3-2.7-5.1
			c-0.4-0.5-0.5-2.2-0.5-4s0.1-2.7,0.5-3.3l0.1-0.5c0,0,0,0,0-0.5l0,0h-6.5l0,0l0,0h0.1c0.4,0.5,0.7,2.2,0.7,4s-0.1,2.7-0.5,3.3
			c-1.2,2.7-2.7,5.1-4.2,6.7c-0.3,0-0.4,0.5-0.7,0.5c-0.1,0-0.4,0-0.5-0.5c-0.4-0.5-0.8-1.6-1.1-2.7c-0.1-0.5-0.3-1.1-0.3-2.2
			c0-0.5,0-0.5,0-1.1c0.1-1.1,0.3-2.2,0.5-2.2c1.9-1.6,3.5-4,4.9-6.7l0,0l0,0h-1.2c-0.5,0-1.1-0.5-1.4-2.2c-0.4-1.6-0.5-3.3-0.5-6.2
			v-23c0-2.2,0.1-4.6,0.5-6.2c0.4-1.6,0.8-2.2,1.4-2.2h2.7c0,0,0.1,0,0.1-0.5c0-0.5,0-0.5,0-0.5c-0.4-2.2-0.7-4.6-1.1-5.7
			c0,0,0,0.5-0.1,0.5c-2,2.2-3.5,4.6-4.6,5.7c-0.1,0-0.3,0-0.4,0c-0.3,0-0.4,0-0.7-0.5c-0.4-0.5-0.5-1.6-0.7-3.3
			c0-0.5-0.1-1.1-0.1-1.6s0-1.6,0.1-2.2c0.1-1.1,0.4-2.2,0.8-2.2c0.9-0.5,2.2-2.2,3.7-3.3c0.1,0,0.3,0,0.4,0c0.4,0,0.7,0.5,0.9,1.1
			c0.4,1.1,0.7,2.7,0.7,5.1c0,0.5,0.1,1.1,0.3,0.5c1.6-1.1,2.8-2.7,3.7-4.6c0.8-2.2,1.4-4.6,1.6-7.8v-0.9l-0.1-0.5h-1.2
			c-0.1,0-0.3,0-0.4,0.5c-0.3,1.1-0.5,2.2-0.8,3.3c-0.3,1.1-0.5,1.6-0.9,1.6l0,0c-0.4,0-0.7-0.5-0.9-1.1c-0.3-0.5-0.4-1.6-0.4-2.7
			c0-1.1,0.1-1.6,0.3-2.7c0.8-2.7,1.4-5.7,1.9-8.9c0.1-1.1,0.4-2.2,0.8-2.7c0.3-0.5,0.5-1.1,0.8-1.1c0.1,0,0.1,0,0.3,0h0.1
			c0.3,0,0.5,0.5,0.7,1.6c0,0.5,0.1,1.1,0.1,1.6c0,0.5,0,1.1-0.1,1.6c0,0,0,0,0,0.5c0,0.5,0,0,0.1,0h6.4c0.8,0,1.5,0,1.9,0.5
			c0.3,0,0.4,1.1,0.5,1.6c0.1,0.5,0.1,1.6,0,2.7c-0.4,2.7-0.7,5.1-1.1,7.3c-0.1,1.1-0.4,1.6-0.8,2.2c-0.1,0-0.3,0.5-0.5,0.5
			s-0.4,0-0.5-0.5c-0.3-0.5-0.4-1.1-0.5-2.2c0-0.5,0-0.5,0-1.1c0-0.5,0-1.1,0.1-1.6c0-0.5,0.1-0.5,0.1-1.1c0,0,0,0,0-0.5
			c0,0,0,0-0.1,0h-2.3c0,0-0.1,0-0.1,0.5c0,0.5,0,0.5,0,0.5c0.3,2.7,0.8,5.7,1.6,7.3c0.8,2.2,2,3.3,3.7,5.1c0.3,0,0.5,1.1,0.5,2.2
			c0,0.5,0.1,1.1,0.1,1.6s0,1.1-0.1,1.6c-0.3,1.6-0.5,2.7-0.8,3.3c-0.3,0.5-0.4,0.5-0.7,0.5c-0.1,0-0.3,0-0.4,0c0,0,0,0-0.1,0
			s-0.1,0-0.1,0.5L348.7,166L348.7,166z M335.8,106.1c0.3,0.5,0.5,1.1,0.5,2.7c0,0.5,0.1,1.1,0.1,1.6c0,0.5,0,1.6-0.1,2.2
			c-0.1,1.1-0.4,2.2-0.8,2.2c-0.1,0-0.3,0-0.4,0s-0.4,0-0.5-0.5c-0.8-1.6-1.8-2.7-2.7-4.6c-0.3-0.5-0.4-1.1-0.5-2.2
			c0-0.5,0-0.5,0-1.1c0-0.5,0-1.1,0.1-1.6c0.1-1.1,0.4-2.2,0.7-2.7c0.1-0.5,0.4-0.5,0.5-0.5s0.3,0,0.4,0.5
			C334.1,103.1,335,104.4,335.8,106.1z M335.8,142c-0.1,0-0.3,0.5-0.3,1.1v2.2c0,0.5,0.1,1.1,0.3,1.1h9.8c0.1,0,0.3-0.5,0.3-1.1
			v-2.2c0-0.5-0.1-1.1-0.3-1.1H335.8z M335.8,152.5c-0.1,0-0.3,0.5-0.3,1.1v2.2c0,0.5,0.1,1.1,0.3,1.1h9.8c0.1,0,0.3-0.5,0.3-1.1
			v-2.2c0-0.5-0.1-1.1-0.3-1.1H335.8z M335.8,163.1c-0.1,0-0.3,0.5-0.3,1.1v2.2c0,0.5,0.1,1.1,0.3,1.1h9.8c0.1,0,0.3-0.5,0.3-1.1
			v-2.2c0-0.5-0.1-1.1-0.3-1.1H335.8z M339.8,134.7C339.6,134.7,339.6,134.7,339.8,134.7L339.8,134.7h7.5l0,0l0,0
			c-1.5-2.2-2.6-5.7-3.3-9.5c-0.1-0.5-0.1-0.5-0.3,0C342.9,129,341.5,132.3,339.8,134.7z"/>
		<path class="st13" d="M361.7,115.5c0.3,0,0.5,0.5,0.8,1.1c0.3,1.1,0.3,2.2,0.3,3.3s-0.1,2.2-0.3,3.3c-0.3,1.1-0.5,1.1-0.8,1.1H355
			c-0.3,0-0.5-0.5-0.8-1.1c-0.3-1.1-0.3-2.2-0.3-3.3s0.1-2.2,0.3-3.3c0.3-1.1,0.5-1.1,0.8-1.1H361.7z M363.5,112.8
			c-0.3-1.1-0.4-1.6-0.4-1.6s0-0.5,0-2.2c0-1.6,0.1-2.7,0.4-4c0.3-1.1,0.5-1.6,0.9-1.6h7.2c0.5,0,1.1,0.5,1.4,2.2
			c0.4,1.6,0.5,3.3,0.5,5.7l-0.1,19.7c0,10,0,19.1,0.1,27.5c0.1,12.9,0.4,19.7,0.9,20.2c0,0,0.1-0.5,0.1-2.2c0-1.6,0.1-3.3,0.1-5.7
			c0-1.1,0.1-1.6,0.3-1.6c0.1,0,0.4,0,0.4,0.5c0.4,2.7,0.7,5.7,0.7,8.4c0,0.5,0,1.6,0,2.2c-0.4,7.3-1.1,11.1-2,11.1
			c-0.3,0-0.5-0.5-0.8-1.1c-0.3-0.5-0.5-1.1-0.7-2.2c-0.3-1.1-0.4-2.2-0.5-4c-0.1-1.8-0.3-3.3-0.4-5.1c-0.1-1.6-0.3-4-0.3-6.7
			s-0.1-5.1-0.3-7.3c-0.1-2.2-0.1-5.1-0.1-8.9s-0.1-6.7-0.1-9.5s0-6.2,0-10c0-3.8,0-7.8,0-10.6s0-6.7,0-11.1c0-0.5-0.1-1.1-0.3-1.1
			h-2.3c-0.1,0-0.3,0.5-0.3,1.1V135c0,0.5,0.1,1.1,0.3,1.1h0.7c0.4,0,0.7,0.5,0.9,1.6c0.3,1.1,0.4,2.2,0.4,4s-0.1,2.7-0.4,4
			s-0.5,1.6-0.9,1.6h-0.8c-0.1,0-0.3,0.5-0.3,1.1c-0.3,15.1-1.2,27.5-3,37c-0.4,1.6-0.8,2.2-1.2,2.2l0,0c-0.5,0-0.9-0.5-1.4-2.2
			c0,0-0.1-0.5-0.3-0.5l0,0c0,0.5,0,0.5-0.1,1.1c0,0.5-0.1,0.5-0.3,0.5h-4.3c0,0-0.1,0-0.1,0.5c0,1.1-0.1,1.6-0.3,2.2
			c-0.1,0.5-0.4,1.1-0.5,1.1h-0.4c-0.3,0-0.5-0.5-0.8-1.6c-0.3-1.1-0.4-2.2-0.4-3.3v-20.6c0-2.2,0.1-4.6,0.5-6.2
			c0.4-1.6,0.8-2.2,1.5-2.2h3.1c0.5,0,1.1,0.5,1.5,2.2c0.4,1.6,0.5,3.3,0.5,6.2v15.1c0,0,0,0,0,0.5h0.1c1.8-7.8,2.7-18.4,3-31.9
			v-0.5l-0.1-0.5h-0.9c-0.4,0-0.7-0.5-0.9-1.6c-0.3-1.1-0.4-2.2-0.4-4c0-1.6,0.1-2.7,0.4-4c0.3-1.1,0.5-1.6,0.9-1.6h1.1
			c0.1,0,0.3-0.5,0.3-1.1V115c0-0.5-0.1-1.1-0.3-1.1h-0.7C364.1,114.4,363.8,113.9,363.5,112.8z M361.1,129.6c0.3,0,0.5,0.5,0.8,1.1
			c0.3,1.1,0.3,1.6,0.3,3.3c0,1.1-0.1,2.2-0.3,3.3c-0.3,1.1-0.4,1.1-0.8,1.1h-5c-0.3,0-0.5-0.5-0.8-1.1c-0.3-1.1-0.3-1.6-0.3-3.3
			c0-1.1,0.1-2.2,0.3-3.3c0.3-1.1,0.4-1.1,0.8-1.1H361.1z M356.1,151.4c-0.3,0-0.5-0.5-0.7-1.1c-0.3-0.5-0.3-1.6-0.3-2.7
			c0-1.1,0.1-2.2,0.3-3.3c0.3-1.1,0.4-1.1,0.7-1.1h5c0.3,0,0.5,0.5,0.7,1.1c0.3,1.1,0.3,1.6,0.3,3.3c0,1.1-0.1,2.2-0.3,2.7
			c-0.3,0.5-0.4,1.1-0.7,1.1H356.1z M361.1,102.6c0.3,0,0.5,0.5,0.8,1.1s0.3,1.6,0.3,3.3c0,1.1-0.1,2.2-0.3,3.3s-0.4,1.1-0.8,1.1
			h-4.9c-0.3,0-0.5-0.5-0.8-1.1c-0.3-0.5-0.3-2.2-0.3-3.3s0.1-2.2,0.3-3.3s0.4-1.1,0.8-1.1H361.1z M359.6,176.6
			c0.1,0,0.3-0.5,0.3-1.1V166c0-0.5-0.1-1.1-0.3-1.1h-2c-0.1,0-0.3,0.5-0.3,1.1v9.5c0,0.5,0.1,1.1,0.3,1.1H359.6z"/>
		<path class="st13" d="M397.8,103.7c0.5,0,1.1,0.5,1.4,2.2c0.4,1.6,0.5,3.3,0.5,5.7v67.3c0,2.7-0.1,5.1-0.3,6.2
			c-0.1,1.6-0.4,2.7-0.8,3.3c-0.5,1.1-1.4,1.6-2.3,1.6l0,0c-0.4,0-0.7-0.5-0.9-1.1c-0.3-1.1-0.4-2.2-0.5-3.3c0-0.5,0-0.5,0-1.1
			s0-1.6,0.1-2.2c0.1-1.1,0.4-1.6,0.7-1.6l0,0c0.4,0,0.7,0,1.1,0c0.1,0,0.3,0,0.3-0.5s0.1-0.5,0.1-1.6V115c0-0.5-0.1-1.1-0.3-1.1
			h-7.2c-0.1,0-0.3,0.5-0.3,1.1v71.3c0,1.6-0.1,2.7-0.4,3.3s-0.5,1.6-0.8,1.6s-0.7-0.5-0.8-1.6c-0.3-1.1-0.4-2.2-0.4-3.3v-11.1v-0.5
			h-0.1c-0.1,0-0.3,0.5-0.4,0.5c-0.3,0-0.5-0.5-0.7-1.1c-0.4-1.1-0.5-2.2-0.7-4c-0.1-2.2-0.3-4.6-0.4-6.7c0-0.5-0.1-1.1-0.1-1.1
			c0-0.5,0-1.1,0.1-1.6c0.1-1.1,0.3-1.6,0.5-2.2c0.1,0,0.3,0,0.4,0s0.3,0,0.5,0.5c0.3,0.5,0.4,1.1,0.5,2.2c0.1,1.6,0.3,3.3,0.4,5.7
			l0,0l0,0v-11.8c0,0,0,0,0-0.5H387l-0.1,0.5c-0.1,0.5-0.3,0.5-0.4,0.5s-0.3,0-0.4-0.5c-0.3-0.5-0.5-1.6-0.5-2.7
			c0-0.5-0.1-0.5-0.3-0.5h-0.8c-0.1,0-0.3,0.5-0.3,1.1v34.6c0,1.1-0.1,2.2-0.4,3.3c-0.3,1.1-0.5,1.6-0.8,1.6c-0.3,0-0.7-0.5-0.8-1.6
			c-0.3-1.1-0.4-2.2-0.4-3.3v-33.7c0,0,0-0.5-0.1-0.5h-0.1l-1.9,0.5h-0.1c-0.3,0-0.5-0.5-0.8-1.1c-0.3-1.1-0.4-2.2-0.4-3.3v-0.5
			c0-1.1,0.1-2.2,0.3-2.7c0.3-1.1,0.5-1.6,0.8-1.6h0.3c0.1,0,0.1,0,0.3-0.5c0.3-1.1,0.5-2.7,0.8-4.6c0.1-0.5,0.1-1.1,0-1.6
			c-0.4-2.7-1.1-6.2-1.8-9.5c-0.3-1.1-0.4-2.2-0.4-4c0-1.1,0.1-2.2,0.3-3.3l0.3-1.6c0.1-0.5,0.3-1.1,0.4-1.1c0.1,0,0.3,0,0.4,0.5
			h0.1c0.4-4,0.8-7.8,1.2-11.8c0.1-1.1,0.4-2.2,0.7-2.7c0.1-0.5,0.4-0.5,0.5-0.5s0.3,0,0.4,0.5c0.3,0.5,0.5,1.1,0.7,2.7
			c0,0.5,0.1,1.1,0.1,1.6s0,1.6-0.1,2.2c-0.8,6.2-1.4,11.1-1.9,14.6c-0.1,0.5-0.1,1.1,0,1.6c0.1,0.5,0.3,1.6,0.4,2.2l0.1,0.5
			c0,0,0.1,0,0.1-0.5c0.5-3.3,1.1-7.3,1.5-10c0.1-1.1,0.4-2.2,0.7-2.7c0.1,0,0.3-0.5,0.4-0.5s0.4,0,0.5,0.5c0.3,0.5,0.5,1.6,0.5,2.7
			c0,0.5,0,1.1,0,1.1c0,0.5,0,1.6-0.1,2.2c-1.4,8.4-2.4,15.1-3.5,20.8c0,0,0,0,0,0.5c0,0,0,0,0.1,0l1.6-0.5h0.1v-0.5
			c0-0.5-0.1-1.1-0.1-1.6c-0.1-0.5-0.1-1.1-0.1-1.6c0-0.5,0-1.1,0.1-1.6c0.1-1.1,0.3-1.6,0.5-2.2c0.1,0,0.3-0.5,0.4-0.5
			s0.3,0,0.4,0.5c0.3,0.5,0.5,1.1,0.7,2.2c0.4,2.7,0.7,5.7,0.8,7.8l0,0l0,0v-31c0-2.2,0.1-4.6,0.5-5.7c0.4-1.6,0.8-2.2,1.5-2.2
			L397.8,103.7L397.8,103.7z M378.8,161.5c0-1.1,0.1-2.2,0.4-2.7c0.1-0.5,0.4-1.1,0.7-1.1h0.1c0.3,0,0.5,0.5,0.8,1.6
			c0.1,0.5,0.3,1.6,0.3,2.7v0.5c-0.1,6.2-0.5,11.1-0.8,16.2c-0.1,1.1-0.3,1.6-0.5,2.2c-0.1,0-0.3,0.5-0.4,0.5c-0.1,0-0.3,0-0.4-0.5
			c-0.3-0.5-0.5-1.6-0.5-2.7c0-0.5-0.1-1.1-0.1-2.2c0-0.5,0-1.1,0.1-1.6C378.6,171.7,378.7,167.1,378.8,161.5z M393.6,167.7h1.6h0.1
			l0,0c0.3,0,0.5,0.5,0.8,1.1c0.3,0.5,0.4,1.6,0.4,2.7v0.5c0,1.1-0.1,2.2-0.3,3.3c-0.1,1.1-0.4,1.6-0.7,1.6c-0.1,0-0.1,0-0.3,0h-1.6
			c-1.1,0-1.8-1.1-2.2-2.7s-0.5-5.1-0.5-10v-8.4c0,0,0-0.5-0.1-0.5s-0.4,0-0.5-0.5c-0.1-0.5-0.1-1.1-0.1-2.2v-1.6
			c0-1.1,0.1-2.2,0.3-3.3c0.3-1.1,0.4-1.1,0.8-1.1h0.8c0.1,0,0.3-0.5,0.3-1.1v-6.2c0-0.5-0.1-1.1-0.3-1.1h-0.7
			c-0.3,0-0.5-0.5-0.8-1.1c-0.3-1.1-0.3-1.6-0.3-3.3v-1.1c0-0.5,0.1-1.6,0.3-2.2s0.3-1.1,0.5-1.1c0,0,0.1,0,0.1-0.5
			c-0.1-2.2-0.3-5.1-0.4-7.8c-0.1-1.1,0-1.6,0-2.7c0.1-1.1,0.3-1.6,0.5-1.6c0.3-0.5,0.4-0.5,0.7,0c0.3,0.5,0.4,1.1,0.5,2.2
			c0.1,1.6,0.3,3.3,0.4,4.6c0,0.5,0,0.5,0,1.1s0,1.6-0.1,2.2c-0.1,1.1-0.4,1.6-0.7,2.2l0,0l0,0h2.7l0,0l0,0
			c-0.3-0.5-0.4-1.1-0.5-1.6c-0.1-1.1-0.1-1.6,0-2.7c0.1-1.6,0.3-3.3,0.4-5.1c0.1-1.1,0.3-2.2,0.5-2.7c0.1-0.5,0.4-0.5,0.5-0.5
			c0.1,0,0.1,0,0.3,0c0.3,0.5,0.4,1.1,0.5,2.2c0,0.5,0.1,1.1,0.1,1.6c0,0.5,0,1.1-0.1,1.6c-0.1,0.5-0.3,1.6-0.4,3.3
			c-0.1,1.6-0.3,2.7-0.4,4c0,0,0,0.5,0.1,0.5c0.3,0,0.5,0.5,0.7,1.1s0.3,1.6,0.3,2.7l0,0c0,1.1-0.1,2.2-0.3,3.3
			c-0.1,1.1-0.4,1.1-0.8,1.1h-0.8c-0.1,0-0.3,0.5-0.3,1.1v6.2c0,0.5,0.1,1.1,0.3,1.1h0.8c0.3,0,0.5,0.5,0.8,1.1
			c0.3,1.1,0.3,1.6,0.3,3.3s-0.1,2.2-0.3,3.3c-0.3,1.1-0.4,1.1-0.8,1.1h-2.2c-0.1,0-0.3,0.5-0.3,1.1v8.4c0,1.1,0,2.2,0.1,2.7
			C393.8,167.7,393.5,167.7,393.6,167.7z"/>
	</g>
</g>
<g>
	<path class="st13" d="M8.7,283c-0.3,0-0.4-0.5-0.5-1.1s-0.3-1.1-0.3-2.2l-0.4-11.1c0-0.5-0.1-0.5-0.1-0.5H3.3c-0.1,0-0.1,0-0.3,0.5
		l-1.4,11.1c-0.1,1.1-0.3,1.6-0.5,2.2c-0.3,0.5-0.4,0.5-0.7,0.5c-0.1,0-0.3-0.5-0.4-1.1c0-0.5,0-1.1,0-1.1v-0.5l5.4-43.2
		c0.1-1.1,0.3-1.6,0.5-2.2c0.3-0.5,0.4-1.1,0.7-1.1c0.3,0,0.4,0.5,0.7,1.1c0.3,0.5,0.3,1.6,0.3,2.2l1.8,43.2c0,0.5,0,0.5,0,1.1
		c0,0.5-0.1,1.1-0.1,1.1C9.1,282.5,8.8,283,8.7,283z M3.7,262.4C3.7,262.4,3.7,263,3.7,262.4c0,0.5,0,0.5,0.1,0.5h3.3h0.1v-0.5
		l-0.3-6.7c-0.1-4-0.3-9.5-0.5-16.8l0,0l0,0c-0.5,4.6-1.1,10-1.9,16.8L3.7,262.4z"/>
	<path class="st13" d="M13.7,300c-1.1,0-1.9-1.1-2.6-2.7c-0.5-1.6-0.8-4-0.7-7.3s0.7-6.2,1.6-8.4l0,0l0,0c-0.4-1.1-0.7-3.3-0.5-6.2
		c0.1-2.2,0.5-4.6,1.2-6.7l0,0l0,0c-0.3-1.1-0.5-2.2-0.7-4.6c-0.1-1.6-0.1-3.3-0.1-5.7c0.1-4,0.7-6.7,1.4-9.5
		c0.7-2.7,1.6-3.3,2.6-3.3c0.4,0,0.7,0,1.1,0.5c0.1,0,0.1,0,0.3,0h2.3c0.1,0,0.3,0,0.4,0.5c0.1,0.5,0.1,1.1,0.1,1.6
		c0,0.5-0.1,1.1-0.3,1.6c-0.1,0.5-0.3,0.5-0.4,0.5h-1.1l0,0c0,0,0,0,0,0.5c0.3,1.6,0.4,4.6,0.3,7.3c-0.1,4-0.5,6.7-1.4,9.5
		c-0.8,2.7-1.5,3.3-2.4,3.3c-0.4,0-0.8-0.5-1.1-1.1c-0.1,0-0.1,0-0.3,0c-0.4,1.1-0.5,2.2-0.7,4c-0.1,2.7,0.4,4,1.4,4h1.8
		c1.1,0,1.8,0.5,2.2,2.2c0.4,1.6,0.5,3.3,0.5,6.7c-0.1,3.3-0.7,6.7-1.6,8.9C16.1,298.9,15.1,300,13.7,300z M14.1,296
		c0.8,0,1.5-0.5,2.2-2.2c0.7-1.6,0.9-3.3,1.1-5.1c0.1-1.6,0-2.7-0.3-3.3c-0.3-0.5-0.7-1.1-1.4-1.1h-1.5c-0.3,0-0.7,0-0.9-0.5
		c0,0,0,0-0.1,0c-0.1,0-0.1,0-0.3,0c-0.5,1.6-0.9,3.3-1.1,5.7c-0.1,2.2,0.1,3.3,0.5,4.6C12.8,295.3,13.3,296,14.1,296z M15.2,267.4
		c0.5,0,0.9-0.5,1.4-2.2c0.4-1.6,0.7-4,0.8-6.2c0.1-2.7,0-4.6-0.3-6.2c-0.3-1.6-0.7-2.2-1.2-2.2c-0.5,0-1.1,0.5-1.5,2.2
		c-0.4,1.6-0.7,3.3-0.8,6.2s0,4.6,0.3,6.2C14.1,266.8,14.6,267.4,15.2,267.4z"/>
	<path class="st13" d="M22.4,282c-0.1,0.5-0.4,1.1-0.5,1.1s-0.4-0.5-0.5-1.1s-0.1-1.1-0.1-2.2l1.4-30.8c0-0.5,0.1-1.1,0.3-1.6
		c0.1-0.5,0.3-0.5,0.4-0.5s0.3,0,0.4,0.5c0.1,0.5,0.1,1.1,0.1,1.6l-0.1,4l0,0l0,0c0.4-2.2,0.8-4.6,1.4-5.7c0.5-1.1,0.9-2.2,1.5-2.2
		c0.1,0,0.3,0,0.3,0c0.1,0,0.3,0.5,0.4,1.1c0,0.5,0,1.1,0,1.6v0.5c-0.1,0.5-0.1,1.1-0.4,1.6c-0.1,0.5-0.3,0.5-0.4,0.5l0,0
		c0,0-0.1,0-0.3,0c-0.4,0-0.8,0.5-1.2,1.6c-0.4,1.1-0.8,3.3-1.2,5.7c0,0.5-0.1,0.5-0.1,1.1l-0.8,19.7
		C22.7,280.9,22.7,281.4,22.4,282z"/>
	<path class="st13" d="M29.3,282c-0.1,0.5-0.4,1.1-0.5,1.1s-0.4-0.5-0.5-1.1s-0.1-1.1-0.1-2.2l1.4-30.3c0-1.1,0.1-1.6,0.3-2.2
		c0.1-0.5,0.4-1.1,0.5-1.1s0.4,0.5,0.5,1.1s0.1,1.1,0.1,2.2l-1.4,30.3C29.4,280.9,29.4,281.4,29.3,282z M31.3,237.7
		c-0.3,0.5-0.5,1.1-0.8,1.1s-0.5-0.5-0.7-1.1s-0.3-1.6-0.1-2.7c0-1.1,0.1-2.2,0.4-2.7c0.3-0.5,0.5-1.1,0.8-1.1s0.5,0.5,0.7,1.1
		s0.3,1.6,0.1,2.7C31.7,236,31.6,237.1,31.3,237.7z"/>
	<path class="st13" d="M36.4,283.8c-1.2,0-2.2-1.6-2.7-5.1c-0.7-3.3-0.8-7.8-0.5-14c0.1-2.7,0.4-5.7,0.7-7.8
		c0.3-2.2,0.7-4.6,1.2-6.2c0.4-1.6,0.9-2.7,1.5-4c0.5-1.3,1.1-1.1,1.6-1.1c0.8,0,1.4,1.1,2,2.7c0.1,0.5,0.1,1.1,0.1,1.6
		s-0.1,1.1-0.3,1.6c-0.1,0.5-0.3,1.1-0.4,1.1c-0.1,0-0.3,0-0.4-0.5c-0.4-1.1-0.8-1.6-1.2-1.6c-0.8,0-1.5,1.1-2.2,4
		c-0.7,2.7-1.1,6.2-1.2,10c-0.1,4.6-0.1,7.8,0.3,10c0.4,2.2,0.9,4,1.8,4c0.5,0,1.1-0.5,1.8-2.2c0.1-0.5,0.3-0.5,0.4-0.5
		c0.1,0,0.3,0.5,0.3,1.1s0.1,1.1,0,1.6v0.5c0,0.5-0.1,1.1-0.3,1.6C38,283,37.2,283.8,36.4,283.8z"/>
	<path class="st13" d="M44.2,283.8c-1.8,0-2.4-4.6-2-14l0.8-20.2c0-1.1,0.1-1.6,0.3-2.2c0.1-0.5,0.4-1.1,0.5-1.1s0.4,0.5,0.5,1.1
		c0.1,0.5,0.1,1.1,0.1,2.2l-0.8,19.1c-0.1,3.3-0.1,5.7,0.1,7.3c0.3,1.6,0.5,2.2,1.2,2.2c0.4,0,0.8-0.5,1.2-1.1
		c0.4-1.1,0.8-2.2,1.4-4.6c0.1-0.5,0.1-0.5,0.1-1.1l0.9-21.9c0-1.1,0.1-1.6,0.3-2.2c0.1-0.5,0.4-1.1,0.5-1.1s0.4,0.5,0.5,1.1
		s0.1,1.1,0.1,2.2l-1.4,30.8c0,0.5-0.1,1.1-0.3,1.6c-0.1,0.5-0.3,0.5-0.5,0.5c-0.1,0-0.3,0-0.4-0.5c-0.1-0.5-0.1-1.1-0.1-1.6
		l0.1-3.3l0,0l0,0c-0.5,2.2-1.1,4-1.6,5.1C45.4,283.2,44.8,283.8,44.2,283.8z"/>
	<path class="st13" d="M53.6,283.8c-1.1,0-1.5-2.7-1.2-8.4l1.9-43.2c0-0.5,0.1-1.6,0.3-2.2c0.1-0.5,0.4-1.1,0.5-1.1s0.4,0.5,0.5,1.1
		c0.1,0.5,0.1,1.1,0.1,2.2l-1.9,43.7c0,1.1,0,2.2,0.1,2.2c0,0,0.1,0,0.1,0.5c0,0,0.1,0,0.1,0.5c0,0,0,0,0.1,0.5l0.1,0.5v0.5l0,0v0.5
		c0,0.5-0.1,1.1-0.1,1.1c-0.1,0.5-0.3,1.1-0.4,1.1C53.7,283.8,53.7,283.8,53.6,283.8z"/>
	<path class="st13" d="M59.8,283.8c-0.9,0-1.5-1.1-1.8-3.3c-0.3-2.2-0.4-5.1-0.1-8.9l0.8-19.7c0-0.5,0-0.5-0.1-0.5h-0.7
		c-0.1,0-0.3,0-0.4-0.5c-0.1-0.5-0.1-1.1-0.1-1.6c0-0.5,0.1-1.1,0.3-1.6c0.1-0.5,0.3-0.5,0.4-0.5h0.7c0.1,0,0.1,0,0.1-0.5l0.4-7.3
		c0-0.5,0.1-1.1,0.3-1.6c0.1-0.5,0.3-0.5,0.5-0.5c0.1,0,0.3,0,0.4,0.5c0.1,0.5,0.1,1.1,0.1,1.6l-0.3,7.3c0,0.5,0,0.5,0.1,0.5h1.6
		c0.1,0,0.3,0,0.4,0.5c0.1,0.5,0.1,1.1,0.1,1.6c0,0.5-0.1,1.1-0.3,1.6c-0.1,0.5-0.3,0.5-0.4,0.5h-1.6c-0.1,0-0.1,0-0.1,0.5
		l-0.8,19.7c-0.1,2.2-0.1,4,0.1,5.1c0.3,1.1,0.5,1.6,0.9,1.6c0.1,0,0.3,0,0.4,0c0.1,0,0.3,0,0.4,0c0.1,0.5,0.1,0.5,0.1,1.1v0.5
		c0,0.5,0,0.5-0.1,1.1c-0.1,0.5-0.3,1.1-0.4,1.1C60.5,283.8,60.2,283.8,59.8,283.8z"/>
	<path class="st13" d="M66.3,283.8c-1.8,0-2.4-4.6-2-14l0.8-20.2c0-1.1,0.1-1.6,0.3-2.2c0.1-0.5,0.4-1.1,0.5-1.1
		c0.1,0,0.4,0.5,0.5,1.1c0.1,0.5,0.1,1.1,0.1,2.2l-0.8,19.1c-0.1,3.3-0.1,5.7,0.1,7.3c0.1,1.6,0.5,2.2,1.2,2.2
		c0.4,0,0.8-0.5,1.2-1.1c0.4-1.1,0.8-2.2,1.4-4.6c0.1-0.5,0.1-0.5,0.1-1.1l0.9-21.9c0-1.1,0.1-1.6,0.3-2.2c0.1-0.5,0.4-1.1,0.5-1.1
		s0.4,0.5,0.5,1.1c0.1,0.5,0.1,1.1,0.1,2.2l-1.4,30.8c0,0.5-0.1,1.1-0.3,1.6c-0.1,0.5-0.3,0.5-0.5,0.5c-0.1,0-0.3,0-0.4-0.5
		c-0.1-0.5-0.1-1.1-0.1-1.6l0.1-3.3l0,0l0,0c-0.5,2.2-1.1,4-1.6,5.1C67.4,283,66.9,283.8,66.3,283.8z"/>
	<path class="st13" d="M75.4,282c-0.1,0.5-0.4,1.1-0.5,1.1s-0.4-0.5-0.5-1.1c-0.1-0.5-0.1-1.1-0.1-2.2l1.4-30.8
		c0-0.5,0.1-1.1,0.3-1.6c0.1-0.5,0.3-0.5,0.4-0.5s0.3,0,0.4,0.5c0.1,0.5,0.1,1.1,0.1,1.6l-0.1,4l0,0l0,0c0.4-2.2,0.8-4.6,1.4-5.7
		c0.5-1.1,0.9-2.2,1.5-2.2c0.1,0,0.3,0,0.3,0c0.1,0,0.3,0.5,0.4,1.1c0,0.5,0,1.1,0,1.6v0.5c-0.1,0.5-0.1,1.1-0.4,1.6
		c-0.1,0.5-0.3,0.5-0.4,0.5l0,0c0,0-0.1,0-0.3,0c-0.4,0-0.8,0.5-1.2,1.6c-0.4,1.1-0.8,3.3-1.2,5.7c0,0.5-0.1,0.5-0.1,1.1l-0.8,19.7
		C75.7,280.9,75.6,281.4,75.4,282z"/>
	<path class="st13" d="M84.4,283.8c-1.2,0-2.2-1.6-2.8-5.1c-0.7-3.3-0.8-7.8-0.7-14c0.1-2.7,0.4-5.7,0.7-7.8
		c0.3-2.2,0.7-4.6,1.1-6.2s0.9-2.7,1.5-4c0.5-1.3,1.1-1.1,1.5-1.1c1.1,0,1.8,1.1,2.3,4c0.5,2.9,0.7,6.2,0.5,11.1v0.5
		c0,1.6-0.3,2.7-0.5,3.3c-0.4,1.1-0.7,1.6-1.1,1.6h-4.5h-0.1v0.5c-0.1,4,0.1,6.7,0.5,8.9c0.4,2.2,1.1,3.3,1.9,3.3
		c0.7,0,1.2-0.5,1.8-1.6c0.1,0,0.3-0.5,0.4,0c0.1,0.5,0.3,0.5,0.3,1.1s0,1.1,0,1.6s-0.1,1.1-0.3,1.6C86.1,283,85.3,283.8,84.4,283.8
		z M82.6,261.4C82.6,261.4,82.6,261.9,82.6,261.4C82.7,261.9,82.7,261.9,82.6,261.4l4.5,0.5h0.1c0,0,0,0,0-0.5l0,0
		c0.1-3.3,0-6.2-0.3-7.8s-0.8-2.7-1.5-2.7c-0.7,0-1.2,1.1-1.8,2.7C83.1,255.7,82.7,258.4,82.6,261.4z"/>
	<path class="st13" d="M96,283c-0.4,0-0.7-0.5-0.9-1.6s-0.3-2.2-0.3-4l1.6-38.1c0.1-1.6,0.3-2.7,0.5-4c0.3-1.3,0.7-1.6,1.1-1.6h2.2
		c1.2,0,2.3,1.1,2.8,2.7s0.8,5.1,0.7,8.9c-0.1,2.2-0.4,4.6-0.7,6.7c-0.3,2.2-0.8,3.3-1.5,4l0,0l0,0c0.7,0.5,1.2,1.6,1.6,4
		c0.4,2.4,0.4,4.6,0.3,7.8c-0.1,4.6-0.8,8.4-1.6,10.6c-0.8,2.2-2,4-3.4,4L96,283L96,283z M96.4,277.6c0,0.5,0,0.5,0.1,0.5h1.9
		c2.2,0,3.4-3.3,3.7-9.5s-0.7-8.9-2.8-8.9h-1.9c-0.1,0-0.1,0-0.1,0.5L96.4,277.6z M97.4,254.1c0,0.5,0,0.5,0.1,0.5h1.6
		c1.9,0,3-2.7,3.3-8.4c0.1-2.7,0-5.1-0.4-6.2c-0.4-1.1-1.1-1.6-2-1.6h-1.6c-0.1,0-0.1,0-0.1,0.5L97.4,254.1z"/>
	<path class="st13" d="M108.2,283.8c-1.8,0-2.4-4.6-2-14l0.8-20.2c0-1.1,0.1-1.6,0.3-2.2c0.1-0.5,0.4-1.1,0.5-1.1
		c0.1,0,0.4,0.5,0.5,1.1c0.1,0.5,0.1,1.1,0.1,2.2l-0.8,19.1c-0.1,3.3-0.1,5.7,0.1,7.3c0.1,1.6,0.5,2.2,1.2,2.2
		c0.4,0,0.8-0.5,1.2-1.1c0.4-1.1,0.8-2.2,1.4-4.6c0.1-0.5,0.1-0.5,0.1-1.1l0.9-21.9c0-1.1,0.1-1.6,0.3-2.2c0.1-0.5,0.4-1.1,0.5-1.1
		c0.1,0,0.4,0.5,0.5,1.1c0.1,0.5,0.1,1.1,0.1,2.2l-1.4,30.8c0,0.5-0.1,1.1-0.3,1.6c-0.1,0.5-0.3,0.5-0.5,0.5c-0.1,0-0.3,0-0.4-0.5
		c-0.1-0.5-0.1-1.1-0.1-1.6l0.1-3.3l0,0l0,0c-0.5,2.2-1.1,4-1.6,5.1C109.3,283,108.8,283.8,108.2,283.8z"/>
	<path class="st13" d="M117.3,282c-0.1,0.5-0.4,1.1-0.5,1.1c-0.1,0-0.4-0.5-0.5-1.1c-0.1-0.5-0.1-1.1-0.1-2.2l1.4-30.8
		c0-0.5,0.1-1.1,0.3-1.6c0.1-0.5,0.3-0.5,0.4-0.5c0.1,0,0.3,0,0.4,0.5c0.1,0.5,0.1,1.1,0.1,1.6l-0.1,3.8l0,0l0,0
		c0.4-2.2,0.8-4.6,1.4-5.7s0.9-2.2,1.5-2.2c0.1,0,0.3,0,0.3,0c0.1,0,0.3,0.5,0.4,1.1c0,0.5,0,1.1,0,1.6v0.5
		c-0.1,0.5-0.1,1.1-0.4,1.6c-0.1,0.5-0.3,0.5-0.4,0.5l0,0c0,0-0.1,0-0.3,0c-0.4,0-0.8,0.5-1.2,1.6c-0.4,1.1-0.8,3.3-1.2,5.7
		c0,0.5-0.1,0.5-0.1,1.1l-0.8,19.7C117.6,280.9,117.6,281.4,117.3,282z"/>
	<path class="st13" d="M126.4,283.8c-1.2,0-2.2-1.6-2.8-5.1c-0.7-3.3-0.8-7.8-0.7-14c0.1-2.7,0.4-5.7,0.7-7.8
		c0.3-2.2,0.7-4.6,1.1-6.2c0.4-1.6,0.9-2.7,1.5-4s1.1-1.1,1.5-1.1c1.1,0,1.8,1.1,2.3,4s0.7,6.2,0.5,11.1v0.5c0,1.6-0.3,2.7-0.5,3.3
		c-0.4,1.1-0.7,1.6-1.1,1.6h-4.3h-0.1v0.5c-0.1,4,0.1,6.7,0.5,8.9c0.4,2.2,1.1,3.3,1.9,3.3c0.7,0,1.2-0.5,1.8-1.6
		c0.1,0,0.3-0.5,0.4,0c0.1,0.5,0.3,0.5,0.3,1.1s0,1.1,0,1.6s-0.1,1.1-0.3,1.6C128,283,127.2,283.8,126.4,283.8z M124.7,261.4
		C124.7,261.4,124.7,261.9,124.7,261.4C124.7,261.9,124.7,261.9,124.7,261.4l4.5,0.5h0.1c0,0,0,0,0-0.5l0,0c0.1-3.3,0-6.2-0.3-7.8
		c-0.3-1.6-0.8-2.7-1.5-2.7s-1.2,1.1-1.8,2.7C125.2,255.7,124.8,258.4,124.7,261.4z"/>
	<path class="st13" d="M134.4,283.8c-0.8,0-1.4-1.1-1.8-2.7c-0.4-1.6-0.5-4.6-0.4-7.3c0.1-4,0.7-6.7,1.6-8.9
		c0.9-2.4,2.3-4.2,4.2-4.7c0.1,0,0.1-0.5,0.1-0.5c0.1-5.5-0.3-8.4-1.5-8.4c-0.7,0-1.5,1.1-2.3,2.7c-0.1,0.5-0.3,0.5-0.4,0.5
		s-0.3-0.5-0.3-1.1c0-0.5,0-1.1,0-1.6c0-0.5,0.1-1.1,0.4-1.6c1.1-2.2,2.2-3.3,3.1-3.3c1.1,0,1.8,1.1,2.2,4c0.4,2.9,0.5,6.2,0.3,11.1
		l-0.8,20.1c0,0.5-0.1,1.1-0.3,1.6c-0.1,0.5-0.3,0.5-0.4,0.5s-0.3,0-0.4-0.5c-0.1-0.5-0.1-1.1-0.1-1.6v-1.6l0,0l0,0
		C136.3,282,135.2,283.8,134.4,283.8z M135,279.2c0.4,0,0.8-0.5,1.2-1.1s0.8-1.6,1.4-3.3c0.1,0,0.1-0.5,0.1-1.1l0.4-8.9v-0.5
		c0,0,0,0-0.1,0l0,0c-1.4,0.5-2.4,1.6-3.1,3.3c-0.7,1.6-1.1,3.3-1.1,5.5c-0.1,2.2,0,3.3,0.3,4.6C134.1,278.7,134.6,279.2,135,279.2z
		"/>
	<path class="st13" d="M144.6,283.8c-1.8,0-2.4-4.6-2-14l0.8-20.2c0-1.1,0.1-1.6,0.3-2.2c0.1-0.5,0.4-1.1,0.5-1.1s0.4,0.5,0.5,1.1
		s0.1,1.1,0.1,2.2l-0.8,19.1c-0.1,3.3-0.1,5.7,0.1,7.3c0.1,1.6,0.5,2.2,1.2,2.2c0.4,0,0.8-0.5,1.2-1.1c0.4-1.1,0.8-2.2,1.4-4.6
		c0.1-0.5,0.1-0.5,0.1-1.1l0.9-21.9c0-1.1,0.1-1.6,0.3-2.2c0.1-0.5,0.4-1.1,0.5-1.1s0.4,0.5,0.5,1.1c0.1,0.5,0.1,1.1,0.1,2.2
		l-1.4,30.8c0,0.5-0.1,1.1-0.3,1.6c-0.1,0.5-0.3,0.5-0.5,0.5c-0.1,0-0.3,0-0.4-0.5c-0.1-0.5-0.1-1.1-0.1-1.6l0.1-3.3l0,0l0,0
		c-0.5,2.2-1.1,4-1.6,5.1C145.7,283,145.1,283.8,144.6,283.8z"/>
	<path class="st13" d="M161.5,282.5c-0.5,1.1-1.1,1.1-1.6,1.1s-1.1-0.5-1.5-1.1c-0.4-1.1-0.8-2.2-1.2-4c-0.3-1.6-0.5-3.3-0.7-6.2
		c-0.1-2.9-0.1-5.1,0-7.8c0.1-2.7,0.4-5.7,0.7-7.8s0.7-4.6,1.2-6.2c0.4-1.6,0.9-2.7,1.5-4c0.5-1.1,1.1-1.1,1.6-1.1s1.1,0.5,1.5,1.1
		c0.4,1.1,0.8,2.2,1.1,4c0.3,1.8,0.5,3.3,0.7,6.2c0.1,2.2,0.1,5.1,0,7.8c-0.1,2.7-0.4,5.7-0.7,7.8c-0.3,2.2-0.7,4.6-1.2,6.2
		C162.5,280.3,162.1,282,161.5,282.5z M158.4,274.7c0.4,2.7,0.9,4,1.6,4c0.7,0,1.5-1.1,2-4c0.5-2.7,0.9-6.2,1.1-10
		c0.1-4,0.1-7.3-0.3-10c-0.4-2.7-0.9-4-1.6-4c-0.7,0-1.5,1.1-2,4c-0.5,2.9-0.9,6.2-1.1,10C158,269.2,158.2,272.5,158.4,274.7z"/>
	<path class="st13" d="M172.9,229.3c0.1,0,0.3,0.5,0.3,1.1c0,0.5,0,0.5,0,1.1v0.5c-0.1,0.5-0.1,1.1-0.3,1.1c-0.1,0.5-0.3,0.5-0.4,0
		c-0.1,0-0.3,0-0.4,0c-0.8,0-1.4,2.2-1.6,7.3l-0.3,5.1c0,0.5,0,0.5,0.1,0.5h1.1c0.1,0,0.3,0,0.4,0.5c0.1,0.5,0.1,1.1,0.1,1.6
		s-0.1,1.1-0.3,1.6c-0.1,0.5-0.3,0.5-0.4,0.5h-1.1c-0.1,0-0.1,0-0.1,0.5l-1.2,28.1c0,1.1-0.1,1.6-0.3,2.2c-0.1,0.5-0.4,1.1-0.5,1.1
		s-0.4-0.5-0.5-1.1c-0.1-0.5-0.1-0.9-0.1-2l1.2-28.1c0-0.5,0-0.5-0.1-0.5h-0.5c-0.1,0-0.3,0-0.4-0.5s-0.1-1.1-0.1-1.6
		s0.1-1.1,0.3-1.6c0.1-0.5,0.3-0.5,0.4-0.5h0.5c0.1,0,0.1,0,0.1-0.5l0.3-5.1c0.1-4,0.5-6.7,0.9-8.9c0.5-2.2,1.2-3.3,2-3.3
		C172.3,228.7,172.7,228.7,172.9,229.3z"/>
	<path class="st13" d="M178.2,282c-0.1,0.5-0.4,1.1-0.5,1.1c-0.1,0-0.4-0.5-0.5-1.1c-0.1-0.5-0.1-1.1-0.1-2.2l1.9-43.2
		c0-1.1,0.1-1.6,0.3-2.2c0.1-0.5,0.4-1.1,0.5-1.1c0.1,0,0.4,0.5,0.5,1.1c0.1,0.5,0.1,1.1,0.1,2.2l-0.9,21.3l0,0l0,0l5.3-21.9
		c0.4-1.6,0.9-2.7,1.5-2.7c0.1,0,0.3,0.5,0.3,1.1c0,0.5,0,1.1-0.1,1.6l-3.8,15.7c-0.1,0.5-0.1,0.5,0,1.1l2.7,27c0,0.5,0,0.5,0,1.1
		c0,0.5,0,0.5-0.1,1.1c-0.1,0.5-0.3,1.1-0.4,1.1c-0.3,0-0.5,0-0.7-0.5c-0.1-0.5-0.4-1.1-0.4-2.2l-2.2-21.9c0,0,0,0-0.1,0
		s-0.1,0-0.1,0l-2.2,8.9c-0.1,0.5-0.1,0.5-0.1,1.1l-0.5,11.8C178.5,280.9,178.4,281.4,178.2,282z"/>
	<path class="st13" d="M189.8,283.8c-0.8,0-1.4-1.1-1.8-2.7c-0.4-1.6-0.5-4.6-0.4-7.3c0.1-4,0.7-6.7,1.6-8.9s2.3-4,4.2-4.6
		c0.1,0,0.1-0.5,0.1-0.5c0.1-5.7-0.3-8.4-1.5-8.4c-0.7,0-1.5,1.1-2.3,2.7c-0.1,0.5-0.3,0.5-0.4,0.5s-0.3-0.5-0.3-1.3
		c0-0.5,0-1.1,0-1.6s0.1-1.1,0.4-1.6c1.1-2.2,2.2-3.3,3.1-3.3c1.1,0,1.8,1.1,2.2,4c0.4,2.9,0.5,6.2,0.3,11.1l-0.8,20.2
		c0,0.5-0.1,1.1-0.3,1.6c-0.1,0.5-0.3,0.5-0.4,0.5s-0.3,0-0.4-0.5c-0.1-0.5-0.1-1.1-0.1-1.6v-1.8l0,0l0,0
		C191.7,282,190.7,283.8,189.8,283.8z M190.4,279.2c0.4,0,0.8-0.5,1.2-1.1c0.4-0.5,0.8-1.6,1.4-3.3c0.1,0,0.1-0.5,0.1-1.1l0.4-8.9
		v-0.5c0,0,0,0-0.1,0l0,0c-1.4,0.5-2.4,1.6-3.1,3.3c-0.7,1.6-1.1,3.3-1.1,5.7c-0.1,2.2,0,3.3,0.3,4.6
		C189.8,279,189.9,279.2,190.4,279.2z"/>
	<path class="st13" d="M202.4,282.5c-0.5,1.1-1.1,1.1-1.6,1.1s-1.1-0.5-1.5-1.1c-0.4-1.1-0.8-2.2-1.2-4c-0.3-1.6-0.5-3.3-0.7-6.2
		c-0.1-2.9-0.1-5.1,0-7.8c0.1-2.7,0.4-5.7,0.7-7.8c0.3-2.2,0.7-4.6,1.2-6.2c0.4-1.6,0.9-2.7,1.5-4c0.5-1.3,1.1-1.1,1.6-1.1
		s1.1,0.5,1.5,1.1c0.4,0.5,0.8,2.2,1.1,4c0.3,1.8,0.5,3.3,0.7,6.2c0.1,2.2,0.1,5.1,0,7.8c-0.1,2.7-0.4,5.7-0.7,7.8
		c-0.3,2.2-0.7,4.6-1.2,6.2C203.5,280.3,202.9,282,202.4,282.5z M199.4,274.7c0.4,2.7,0.9,4,1.6,4c0.7,0,1.5-1.1,2-4
		c0.5-2.7,0.9-6.2,1.1-10c0.1-4,0.1-7.3-0.3-10c-0.4-2.7-0.9-4-1.6-4c-0.7,0-1.5,1.1-2,4c-0.5,2.9-0.9,6.2-1.1,10
		C198.8,269.2,199,272.5,199.4,274.7z"/>
	<path class="st13" d="M209,282c-0.1,0.5-0.4,1.1-0.5,1.1c-0.1,0-0.4-0.5-0.5-1.1c-0.1-0.5-0.1-1.1-0.1-2.2l2-47.6
		c0-0.5,0.1-1.6,0.3-2.2c0.1-0.5,0.4-1.1,0.5-1.1c0.1,0,0.4,0.5,0.5,1.1c0.1,0.5,0.1,1.1,0.1,2.2l-0.5,11.7l-0.3,6.7l0,0l0,0
		c1.1-4,2.2-5.7,3.1-5.7c1.8,0,2.4,5.1,2,14.6l-0.8,20.2c0,1.1-0.1,1.6-0.3,2.2c-0.1,0.5-0.4,1.1-0.5,1.1c-0.1,0-0.4-0.5-0.5-1.1
		c-0.1-0.5-0.1-1.1-0.1-2.2l0.8-19.1c0.1-3.3,0.1-6.2-0.1-7.3c-0.1-1.6-0.5-2.2-1.2-2.2c-0.4,0-0.8,0.5-1.2,1.1s-0.8,2.2-1.4,4
		c-0.1,0.5-0.1,0.5-0.1,1.1l-0.9,23C209.3,280.9,209.2,281.4,209,282z"/>
	<path class="st13" d="M220.4,283.8c-0.9,0-1.9-1.1-2.7-3.3c-0.1-0.7-0.1-1.3-0.1-1.8c0,0,0,0,0-0.5c0-0.5,0.1-1.1,0.1-1.6
		c0.1-0.5,0.3-1.1,0.4-1.1c0.1,0,0.3,0,0.4,0.5c0.5,1.6,1.2,2.7,2,2.7c0.5,0,0.9-0.5,1.4-1.6c0.4-1.1,0.5-2.2,0.7-4
		c0-0.5,0-1.6,0-2.2c0-0.5-0.1-1.1-0.3-1.6s-0.3-1.1-0.4-1.1c-0.1-0.5-0.4-0.5-0.5-1.1c-0.1-0.5-0.3-0.5-0.5-1.1
		c-0.3-0.5-0.5-1.1-0.7-1.1s-0.4-1.1-0.7-1.6s-0.4-1.1-0.5-2.2s-0.3-1.6-0.3-2.7s-0.1-2.2,0-3.3c0.1-2.7,0.5-5.7,1.1-7.3
		c0.5-1.6,1.4-2.7,2.3-2.7c0.8,0,1.5,1.1,2.2,2.7c0.1,0.5,0.1,1.1,0.1,1.6c0,0.5-0.1,1.1-0.1,1.6c-0.1,0.5-0.3,1.1-0.4,1.1
		c-0.1,0-0.3,0-0.4-0.5c-0.4-1.1-0.9-1.6-1.5-1.6s-0.9,0.5-1.2,1.6s-0.5,2.2-0.5,4c0,0.5,0,1.1,0,1.6c0,0.5,0.1,1.1,0.1,1.1
		c0.1,0.5,0.1,0.5,0.4,1.1s0.3,0.5,0.4,1.1c0.1,0,0.3,0.5,0.5,1.1c0.1,0,0.1,0,0.1,0c0.3,0.5,0.4,0.5,0.5,1.1c0.1,0,0.3,0.5,0.5,1.1
		c0.3,0.5,0.4,0.5,0.5,1.1s0.3,0.5,0.4,1.6c0.1,1.1,0.3,1.1,0.3,1.6c0,0.5,0.1,1.1,0.1,2.2c0,0.5,0,1.6,0,2.7
		c-0.1,3.3-0.5,5.7-1.2,7.8C222.3,283,221.4,283.8,220.4,283.8z"/>
	<path class="st13" d="M227.5,282c-0.1,0.5-0.4,1.1-0.5,1.1s-0.4-0.5-0.5-1.1c-0.1-0.5-0.1-1.1-0.1-2.2l1.4-30.3
		c0-1.1,0.1-1.6,0.3-2.2c0.1-0.5,0.4-1.1,0.5-1.1s0.4,0.5,0.5,1.1c0.1,0.5,0.1,1.1,0.1,2.2l-1.4,30.3
		C227.7,280.9,227.7,281.4,227.5,282z M229.6,237.7c-0.3,0.5-0.5,1.1-0.8,1.1c-0.3,0-0.5-0.5-0.7-1.1s-0.3-1.6-0.1-2.7
		c0-1.1,0.1-2.2,0.4-2.7c0.3-0.5,0.5-1.1,0.8-1.1c0.3,0,0.5,0.5,0.7,1.1c0.1,0.5,0.3,1.6,0.1,2.7C230,236,229.9,237.1,229.6,237.7z"
		/>
	<path class="st13" d="M233.7,283.8c-1.8,0-2.4-4.6-2-14l0.8-20.2c0-1.1,0.1-1.6,0.3-2.2c0.1-0.5,0.4-1.1,0.5-1.1s0.4,0.5,0.5,1.1
		s0.1,1.1,0.1,2.2l-0.8,19.1c-0.1,3.3-0.1,5.7,0.1,7.3c0.3,1.6,0.5,2.2,1.2,2.2c0.4,0,0.8-0.5,1.2-1.1c0.4-1.1,0.8-2.2,1.4-4.6
		c0.1-0.5,0.1-0.5,0.1-1.1l0.9-21.9c0-1.1,0.1-1.6,0.3-2.2c0.1-0.5,0.4-1.1,0.5-1.1s0.4,0.5,0.5,1.1c0.1,0.5,0.1,1.1,0.1,2.2
		l-1.4,30.8c0,0.5-0.1,1.1-0.3,1.6s-0.3,0.5-0.5,0.5c-0.1,0-0.3,0-0.4-0.5c-0.1-0.5-0.1-1.1-0.1-1.6l0.1-3.3l0,0l0,0
		c-0.5,2.2-1.1,4-1.6,5.1C234.8,283,234.2,283.8,233.7,283.8z"/>
	<path class="st13" d="M242.8,282c-0.1,0.5-0.4,1.1-0.5,1.1c-0.1,0-0.4-0.5-0.5-1.1s-0.1-1.1-0.1-2.2l1.4-30.8
		c0-0.5,0.1-1.1,0.3-1.6c0.1-0.5,0.3-0.5,0.4-0.5s0.3,0,0.4,0.5c0.1,0.5,0.1,1.1,0.1,1.6v2.7l0,0l0,0c0.5-2.2,1.1-3.3,1.6-4.6
		c0.5-1.3,1.1-1.6,1.6-1.6c1.8,0,2.4,5.1,2,14.6l-0.8,20.2c0,1.1-0.1,1.6-0.3,2.2c-0.1,0.5-0.4,1.1-0.5,1.1s-0.4-0.5-0.5-1.1
		c-0.1-0.5-0.1-1.1-0.1-2.2l0.8-19.1c0.1-3.3,0.1-6.2-0.1-7.3c-0.1-1.6-0.5-2.2-1.2-2.2c-0.4,0-0.8,0.5-1.2,1.1
		c-0.4,0.5-0.8,2.2-1.4,4c-0.1,0.5-0.1,0.5-0.1,1.1l-0.9,23C243.1,280.9,242.9,281.4,242.8,282z"/>
	<path class="st13" d="M254.2,300c-1.1,0-1.9-1.1-2.6-2.7c-0.5-1.6-0.8-4-0.7-7.3s0.7-6.2,1.6-8.4l0,0l0,0c-0.4-1.1-0.7-3.3-0.5-6.2
		c0.1-2.2,0.5-4.6,1.2-6.7l0,0l0,0c-0.3-1.1-0.5-2.2-0.7-4.6c-0.1-1.6-0.1-3.3-0.1-5.7c0.1-4,0.7-6.7,1.4-9.5
		c0.7-2.2,1.6-3.3,2.6-3.3c0.4,0,0.7,0,1.1,0.5c0.1,0,0.1,0,0.3,0h2.3c0.1,0,0.3,0,0.4,0.5s0.1,1.1,0.1,1.6c0,0.5-0.1,1.1-0.3,1.6
		c-0.1,0.5-0.3,0.5-0.4,0.5h-1.1l0,0c0,0,0,0,0,0.5c0.3,1.6,0.4,4.6,0.3,7.3c-0.1,4-0.5,6.7-1.4,9.5c-0.8,2.7-1.5,3.3-2.4,3.3
		c-0.4,0-0.8-0.5-1.1-1.1c-0.1,0-0.1,0-0.3,0c-0.4,1.1-0.5,2.2-0.7,4c-0.1,2.7,0.4,4,1.4,4h1.8c1.1,0,1.8,0.5,2.2,2.2
		c0.4,1.6,0.5,3.3,0.5,6.7c-0.1,3.3-0.7,6.7-1.6,8.9C256.6,298.9,255.5,300,254.2,300z M254.6,296c0.8,0,1.5-0.5,2.2-2.2
		c0.5-1.6,0.9-3.3,1.1-5.1c0.1-1.6,0-2.7-0.3-3.3c-0.3-0.5-0.7-1.1-1.4-1.1h-1.5c-0.3,0-0.7,0-0.9-0.5c0,0,0,0-0.1,0s-0.1,0-0.3,0
		c-0.5,1.6-0.9,3.3-1.1,5.7c-0.1,2.2,0.1,3.3,0.5,4.6C253.2,295.4,253.8,296,254.6,296z M255.5,267.4c0.5,0,0.9-0.5,1.4-2.2
		s0.7-4,0.8-6.2c0.1-2.2,0-4.6-0.3-6.2c-0.3-1.6-0.7-2.2-1.2-2.2c-0.5,0-1.1,0.5-1.5,2.2c-0.4,1.6-0.7,3.3-0.8,6.2
		c-0.1,2.9,0,4.6,0.3,6.2C254.6,266.8,255,267.4,255.5,267.4z"/>
	<path class="st13" d="M270.3,283.8c-1.5,0-2.7-2.2-3.4-6.7c-0.8-4.6-0.9-10.6-0.7-18.4s1.1-14,2.3-18.4c1.2-4.6,2.6-6.7,4.1-6.7
		c1.1,0,1.9,1.6,2.6,4.6c0.1,0.5,0.1,1.1,0.1,2.2c0,0.5-0.1,1.1-0.3,1.6c-0.1,0.5-0.3,0.5-0.4,1.1c-0.1,0.5-0.3,0-0.4-0.5
		c-0.5-1.6-1.1-2.7-1.9-2.7c-1.1,0-2.2,1.6-3,5.7c-0.8,3.3-1.4,8.4-1.6,14.6c-0.3,6.2-0.1,11.1,0.4,14.6c0.5,3.5,1.4,5.7,2.4,5.7
		c0.8,0,1.6-1.1,2.4-4c0.1-0.5,0.3-0.5,0.5-0.5c0.3,0,0.3,0.5,0.4,0.5c0.1,0.5,0.1,1.1,0.1,1.6c0,0.5-0.1,1.6-0.3,1.6
		C272.8,282,271.5,283.8,270.3,283.8z"/>
	<path class="st13" d="M277.9,282c-0.1,0.5-0.4,1.1-0.5,1.1c-0.1,0-0.4-0.5-0.5-1.1c-0.1-0.5-0.1-1.1-0.1-2.2l1.4-30.3
		c0-1.1,0.1-1.6,0.3-2.2c0.1-0.5,0.4-1.1,0.5-1.1s0.4,0.5,0.5,1.1c0.1,0.5,0.1,1.1,0.1,2.2l-1.4,30.3
		C278.2,280.9,278.1,281.4,277.9,282z M280,237.7c-0.3,0.5-0.5,1.1-0.8,1.1c-0.3,0-0.5-0.5-0.7-1.1c-0.1-0.5-0.3-1.6-0.1-2.7
		c0-1.1,0.1-2.2,0.4-2.7c0.3-0.5,0.5-1.1,0.8-1.1c0.3,0,0.5,0.5,0.7,1.1c0.1,0.5,0.3,1.6,0.1,2.7C280.4,236,280.2,237.1,280,237.7z"
		/>
	<path class="st13" d="M284.3,283.8c-0.9,0-1.5-1.1-1.8-3.3c-0.3-2.2-0.4-5.1-0.1-8.9l0.8-19.7c0-0.5,0-0.5-0.1-0.5h-0.7
		c-0.1,0-0.3,0-0.4-0.5c-0.1-0.5-0.1-1.1-0.1-1.6c0-0.5,0.1-1.1,0.3-1.6c0.1-0.5,0.3-0.5,0.4-0.5h0.7c0.1,0,0.1,0,0.1-0.5l0.4-7.3
		c0-0.5,0.1-1.1,0.3-1.6c0.1-0.5,0.3-0.5,0.5-0.5c0.1,0,0.3,0,0.4,0.5c0.1,0.5,0.1,1.1,0.1,1.6l-0.3,7.3c0,0.5,0,0.5,0.1,0.5h1.6
		c0.1,0,0.3,0,0.4,0.5c0.1,0.5,0.1,1.1,0.1,1.6c0,0.5-0.1,1.1-0.3,1.6c-0.1,0.5-0.3,0.5-0.4,0.5h-1.6c-0.1,0-0.1,0-0.1,0.5
		l-0.8,19.7c-0.1,2.2-0.1,4,0.1,5.1c0.3,1.1,0.5,1.6,0.9,1.6c0.1,0,0.3,0,0.4,0s0.3,0,0.4,0c0.1,0.5,0.1,0.5,0.1,1.1v0.5
		c0,0.5,0,0.5-0.1,1.1c-0.1,0.5-0.3,1.1-0.4,1.1C285,283.8,284.6,283.8,284.3,283.8z"/>
	<path class="st13" d="M287.7,298.9c-0.1,0-0.3,0-0.4,0s-0.3-0.5-0.3-1.1s0-1.1,0-2.2c0.1-0.5,0.1-1.1,0.3-1.6
		c0.1-0.5,0.3-0.5,0.5-0.5l0,0c0.9,0,1.8-2.7,2.3-7.8l0.3-2.2c0-0.5,0-0.5,0-1.1l-1.8-33c0-0.5,0-0.5,0-1.1s0-0.5,0.1-1.1
		c0.1-0.5,0.3-1.1,0.4-1.1c0.3,0,0.4,0,0.5,0.5c0.1,0.5,0.3,1.1,0.3,2.2l0.8,17c0.1,5.1,0.4,8.4,0.4,10l0,0l0,0
		c0.1-0.5,0.3-2.2,0.5-4.6c0.3-2.2,0.5-4,0.7-5.1l2-17.3c0.1-0.5,0.3-1.6,0.4-2.2s0.4-0.5,0.7-0.5c0.1,0,0.3,0.5,0.4,1.1
		c0,0.5,0,0.5,0,1.1v0.5l-4.6,37c-0.5,4-1.1,7.3-1.6,9.5C289.2,297.4,288.5,298.9,287.7,298.9z"/>
	<path class="st13" d="M306,283.8c-1.6,0-2.8-2.2-3.5-6.7c-0.8-4.6-1.1-10.6-0.7-18.4c0.3-7.8,1.1-14,2.3-18.4
		c1.2-4.6,2.6-6.7,4.2-6.7c1.1,0,2,1.6,2.8,4.6c0.1,0.5,0.1,1.1,0.1,2.2c0,0.5-0.1,1.1-0.3,1.6c-0.1,0.5-0.3,0.5-0.4,1.1
		c-0.1,0.5-0.3,0-0.4-0.5c-0.5-2.2-1.2-2.7-2-2.7c-1.2,0-2.3,1.6-3.1,5.7c-0.8,3.3-1.5,8.4-1.8,14.6c-0.3,6.2-0.1,11.1,0.4,14.6
		c0.5,3.5,1.5,5.7,2.7,5.7c0.8,0,1.5-0.5,2.2-2.2c0.1,0,0.1-0.5,0.1-1.1l0.5-11.8c0-0.5,0-0.5-0.1-0.5h-1.8c-0.1,0-0.3,0-0.4-0.5
		s-0.1-1.1-0.1-1.6c0-0.5,0.1-1.1,0.3-1.6c0.1-0.5,0.3-0.5,0.4-0.5h1.9c0.4,0,0.7,0.5,0.9,1.6s0.3,2.2,0.3,4l-0.4,9.5
		c-0.1,2.2-0.3,4-0.5,5.7c-0.3,1.6-0.5,2.7-0.9,4C307.9,283,307,283.8,306,283.8z"/>
	<path class="st13" d="M317.9,282.5c-0.5,1.1-1.1,1.1-1.6,1.1s-1.1-0.5-1.5-1.1c-0.4-0.5-0.8-2.2-1.2-4c-0.3-1.6-0.5-3.3-0.7-6.2
		c-0.1-2.9-0.1-5.1,0-7.8c0.1-2.7,0.4-5.7,0.7-7.8s0.7-4.6,1.2-6.2c0.4-1.6,0.9-2.7,1.5-4c0.5-1.3,1.1-1.1,1.6-1.1s1.1,0.5,1.5,1.1
		c0.4,0.5,0.8,2.2,1.1,4c0.3,1.6,0.5,3.3,0.7,6.2c0.1,2.2,0.1,5.1,0,7.8c-0.1,2.7-0.4,5.7-0.7,7.8c-0.3,2.2-0.7,4.6-1.2,6.2
		C319,280.3,318.5,282,317.9,282.5z M315,274.7c0.4,2.7,0.9,4,1.6,4s1.5-1.1,2-4c0.5-2.7,0.9-6.2,1.1-10c0.1-4,0.1-7.3-0.3-10
		c-0.4-2.7-0.9-4-1.6-4s-1.5,1.1-2,4c-0.5,2.9-0.9,6.2-1.1,10C314.4,269.2,314.5,272.5,315,274.7z"/>
	<path class="st13" d="M326.8,282c-0.3,0.5-0.5,1.1-0.8,1.1s-0.5-0.5-0.7-1.1s-0.3-1.6-0.4-2.2l-1.4-30.3V249c0-0.5,0.1-1.1,0.1-1.1
		c0.1-0.5,0.3-1.1,0.5-1.1c0.3,0,0.4,0.5,0.5,1.1c0.1,0.5,0.3,1.1,0.3,2.2l0.7,17.9c0,0.5,0.1,2.2,0.1,5.1c0.1,2.7,0.1,4.6,0.1,5.7
		l0,0l0,0c0.7-6.2,1.2-9.5,1.2-10.6l2.2-17.9c0.1-1.1,0.3-1.6,0.4-2.2c0.1-0.5,0.4-0.5,0.7-0.5c0.1,0,0.3,0.5,0.4,1.1
		c0,0.5,0,0.5,0,1.1v0.5l-3.9,30.1C327.3,280.9,327,281.4,326.8,282z"/>
	<path class="st13" d="M335.8,283.8c-1.2,0-2.2-1.6-2.8-5.1c-0.7-3.3-0.8-7.8-0.7-14c0.1-2.7,0.4-5.7,0.7-7.8
		c0.3-2.2,0.7-4.6,1.1-6.2s0.9-2.7,1.5-4c0.5-1.3,1.1-1.1,1.5-1.1c1.1,0,1.8,1.1,2.3,4s0.7,6.2,0.5,11.1v0.5c0,1.6-0.3,2.7-0.5,3.3
		c-0.4,1.1-0.7,1.6-1.1,1.6h-4.5h-0.1v0.5c-0.1,4,0.1,6.7,0.5,8.9c0.4,2.2,1.1,3.3,1.9,3.3c0.7,0,1.2-0.5,1.8-1.6
		c0.1,0,0.3-0.5,0.4,0c0.1,0,0.3,0.5,0.3,1.1s0,1.1,0,1.6s-0.1,1.1-0.3,1.6C337.5,283,336.7,283.8,335.8,283.8z M333.9,261.4
		C333.9,261.4,333.9,261.9,333.9,261.4C334.1,261.9,334.1,261.9,333.9,261.4l4.5,0.5h0.1c0,0,0,0,0-0.5l0,0c0.1-3.3,0-6.2-0.3-7.8
		c-0.3-1.6-0.8-2.7-1.5-2.7c-0.7,0-1.2,1.1-1.8,2.7C334.5,255.7,334.1,258.4,333.9,261.4z"/>
	<path class="st13" d="M343,282c-0.1,0.5-0.4,1.1-0.5,1.1c-0.1,0-0.4-0.5-0.5-1.1s-0.1-1.1-0.1-2.2l1.4-30.8c0-0.5,0.1-1.1,0.3-1.6
		c0.1-0.5,0.3-0.5,0.4-0.5s0.3,0,0.4,0.5c0.1,0.5,0.1,1.1,0.1,1.6l-0.1,4l0,0l0,0c0.4-2.2,0.8-4.6,1.4-5.7c0.5-1.1,0.9-2.2,1.5-2.2
		c0.1,0,0.3,0,0.3,0c0.1,0,0.3,0.5,0.4,1.1c0,0.5,0,1.1,0,1.6v0.5c-0.1,0.5-0.1,1.1-0.4,1.6c-0.1,0.5-0.3,0.5-0.4,0.5l0,0
		c0,0-0.1,0-0.3,0c-0.4,0-0.8,0.5-1.2,1.6c-0.4,1.1-0.8,3.3-1.2,5.7c0,0.5-0.1,0.5-0.1,1.1l-0.8,19.7
		C343.3,280.9,343.2,281.4,343,282z"/>
	<path class="st13" d="M349.8,282c-0.1,0.5-0.4,1.1-0.5,1.1s-0.4-0.5-0.5-1.1c-0.1-0.5-0.1-1.1-0.1-2.2l1.4-30.8
		c0-0.5,0.1-1.1,0.3-1.6c0.1-0.5,0.3-0.5,0.4-0.5s0.3,0,0.4,0.5c0.1,0.5,0.1,1.1,0.1,1.6v2.7l0,0l0,0c0.5-2.2,1.1-3.3,1.6-4.6
		c0.5-1.3,1.1-1.6,1.6-1.6c1.8,0,2.4,5.1,2,14.6l-0.8,20.2c0,1.1-0.1,1.6-0.3,2.2c-0.1,0.5-0.4,1.1-0.5,1.1s-0.4-0.5-0.5-1.1
		c-0.1-0.5-0.1-1.1-0.1-2.2l0.8-19.1c0.1-3.3,0.1-6.2-0.1-7.3c-0.1-1.6-0.5-2.2-1.2-2.2c-0.4,0-0.8,0.5-1.2,1.1
		c-0.4,0.5-0.8,2.2-1.4,4c-0.1,0.5-0.1,0.5-0.1,1.1l-0.9,23C350.1,280.9,350.1,281.4,349.8,282z"/>
	<path class="st13" d="M360.3,282c-0.1,0.5-0.4,1.1-0.5,1.1s-0.4-0.5-0.5-1.1c-0.1-0.5-0.1-1.1-0.1-2.2l1.4-30.8
		c0-0.5,0.1-1.1,0.3-1.6c0.1-0.5,0.3-0.5,0.4-0.5s0.3,0,0.4,0.5c0.1,0.5,0.1,1.1,0.1,1.6v2.7l0,0l0,0c1.1-4,2-6.2,3-6.2
		c1.2,0,1.9,2.2,2.2,6.2c0,0,0,0,0.1,0c0,0,0,0,0.1,0c1.2-4.6,2.2-6.7,3.1-6.7c1.8,0,2.4,5.1,2,14.6l-0.8,20.2
		c0,1.1-0.1,1.6-0.3,2.2c-0.1,0.5-0.4,1.1-0.5,1.1s-0.4-0.5-0.5-1.1c-0.1-0.5-0.1-1.1-0.1-2.2l0.8-19.1c0.1-3.3,0.1-6.2-0.1-7.3
		c-0.1-1.6-0.5-2.2-1.1-2.2c-0.7,0-1.5,1.6-2.3,5.1c-0.1,0.5-0.1,0.5-0.1,1.1l-0.9,23c0,1.1-0.1,1.6-0.3,2.2s-0.4,1.1-0.5,1.1
		c-0.1,0-0.4-0.5-0.5-1.1c-0.1-0.5-0.1-1.1-0.1-2.2l0.8-19.1c0.1-3.3,0.1-6.2-0.1-7.3c-0.1-1.6-0.5-2.2-1.1-2.2
		c-0.7,0-1.5,1.6-2.3,5.1c-0.1,0.5-0.1,0.5-0.1,1.1l-0.9,23C360.5,280.9,360.4,281.4,360.3,282z"/>
	<path class="st13" d="M378,283.8c-1.2,0-2.2-1.6-2.8-5.1c-0.7-3.3-0.8-7.8-0.7-14c0.1-2.7,0.4-5.7,0.7-7.8c0.3-2.2,0.7-4.6,1.1-6.2
		s0.9-2.7,1.5-4s1.1-1.1,1.5-1.1c1.1,0,1.8,1.1,2.3,4c0.5,2.9,0.7,6.2,0.5,11.1v0.5c0,1.6-0.3,2.7-0.5,3.3c-0.4,1.1-0.7,1.6-1.1,1.6
		H376h-0.1v0.5c-0.1,4,0.1,6.7,0.5,8.9c0.4,2.2,1.1,3.3,1.9,3.3c0.7,0,1.2-0.5,1.8-1.6c0.1,0,0.3-0.5,0.4,0c0.1,0,0.3,0.5,0.3,1.1
		s0,1.1,0,1.6s-0.1,1.1-0.3,1.6C379.8,283,379,283.8,378,283.8z M376.3,261.4C376.3,261.4,376.3,261.9,376.3,261.4
		C376.3,261.9,376.4,261.9,376.3,261.4l4.5,0.5h0.1c0,0,0,0,0-0.5l0,0c0.1-3.3,0-6.2-0.3-7.8c-0.3-1.6-0.8-2.7-1.5-2.7
		s-1.2,1.1-1.8,2.7C376.8,255.7,376.4,258.4,376.3,261.4z"/>
	<path class="st13" d="M385.4,282c-0.1,0.5-0.4,1.1-0.5,1.1c-0.1,0-0.4-0.5-0.5-1.1c-0.1-0.5-0.1-1.1-0.1-2.2l1.4-30.8
		c0-0.5,0.1-1.1,0.3-1.6c0.1-0.5,0.3-0.5,0.4-0.5s0.3,0,0.4,0.5c0.1,0.5,0.1,1.1,0.1,1.6v2.7l0,0l0,0c0.5-2.2,1.1-3.3,1.6-4.6
		s1.1-1.6,1.6-1.6c1.8,0,2.4,5.1,2,14.6l-0.8,20.2c0,1.1-0.1,1.6-0.3,2.2c-0.1,0.5-0.4,1.1-0.5,1.1c-0.1,0-0.4-0.5-0.5-1.1
		c-0.1-0.5-0.1-1.1-0.1-2.2l0.8-19.1c0.1-3.3,0.1-6.2-0.1-7.3c-0.1-1.6-0.5-2.2-1.2-2.2c-0.4,0-0.8,0.5-1.2,1.1
		c-0.4,0.5-0.8,2.2-1.4,4c-0.1,0.5-0.1,0.5-0.1,1.1l-0.9,23C385.6,280.9,385.5,281.4,385.4,282z"/>
	<path class="st13" d="M397.2,283.8c-0.9,0-1.5-1.1-1.8-3.3c-0.3-2.2-0.4-5.1-0.1-8.9l0.8-19.7c0-0.5,0-0.5-0.1-0.5h-0.7
		c-0.1,0-0.3,0-0.4-0.5c-0.1-0.5-0.1-1.1-0.1-1.6c0-0.5,0.1-1.1,0.3-1.6c0.1-0.5,0.3-0.5,0.4-0.5h0.7c0.1,0,0.1,0,0.1-0.5l0.4-7.3
		c0-0.5,0.1-1.1,0.3-1.6c0.1-0.5,0.3-0.5,0.5-0.5c0.1,0,0.3,0,0.4,0.5c0.1,0.5,0.1,1.1,0.1,1.6l-0.3,7.3c0,0.5,0,0.5,0.1,0.5h1.6
		c0.1,0,0.3,0,0.4,0.5c0.1,0.5,0.1,1.1,0.1,1.6c0,0.5-0.1,1.1-0.3,1.6c-0.1,0.5-0.3,0.4-0.4,0.4h-1.6c-0.1,0-0.1,0-0.1,0.5
		l-0.8,19.7c-0.1,2.2-0.1,4,0.1,5.1c0.1,1.1,0.5,1.6,0.9,1.6c0.1,0,0.3,0,0.4,0s0.3,0,0.4,0c0.1,0.5,0.1,0.5,0.1,1.1v0.5
		c0,0.5,0,0.5-0.1,1.1c-0.1,0.5-0.3,1.1-0.4,1.1C397.8,283.8,397.6,283.8,397.2,283.8z"/>
</g>
<g>
	<path class="st14" d="M247.6,145.8c0,0-0.2,0-0.2,0.5v0.5c0.6,1.6,0.8,3.3,0.6,5.7c0,0.5,0,1.1,0,1.1c-0.4,2.7-1,4.6-2,5.7
		c-2.2,2.2-4.4,4.6-6.5,6.7c0,0-0.2,0-0.2,0.5s0,0.5,0,0.5c2.6,2.7,5.6,4.6,9.1,6.2c0.8,0.5,1.4,1.6,1.6,4c0,1.1,0,2.2,0,2.7
		c0,1.1-0.4,2.7-0.6,4c-0.8,3.3-2,5.7-3.2,7.3c-1,1.1-1.8,1.6-2.6,1.6c-0.4,0-0.6,0-1-0.5c-7.5-4.6-13.3-11.8-17.1-23h-0.2
		c-0.2,0-0.2,0.5-0.2,1.1c-0.2,3.3-0.8,6.7-1.8,9.5c-1,2.7-2.2,4.6-3.6,5.1c-3.4,1.1-9.1,2.7-17.3,5.1c-0.2,0-0.2,0-0.4,0
		c-0.8,0-1.6-0.5-2.2-2.2c-0.6-1.6-1-4-1-6.7c0-0.5,0-1.1,0-1.1c0.2-2.2,0.6-4.6,1.2-6.2c0.8-2.2,1.6-3.3,2.6-3.3l1.6-0.5
		c0.4,0,0.6-0.5,0.6-1.6l1.4-20.8c0-1.1-0.2-2.2-0.6-2.2h-3.4c-0.4,0-0.8,0.5-1,2.2c-1.8,14.6-4,27-6.7,37c-0.8,2.7-1.8,4.6-3,5.1
		c-0.2,0-0.6,0-0.8,0c-0.8,0-1.6-0.5-2.2-2.2c-0.8-2.2-1.4-4.4-1.4-7.1c0-1.1,0-1.6,0.2-2.7c0.2-2.2,0.4-4,0.8-5.7
		c4-15.1,6.9-36.5,8.5-63.3l0.6-8.4c0.2-4.6,1.2-8.9,2.6-12.4s3-5.1,4.6-5.1h47c0.8,0,1.6,0.5,2,2.2s0.6,3.3,0.6,6.2
		c0,2.9-0.6,4.6-1.2,6.2c-0.6,1.6-1.4,2.2-2.2,2.2h-44.8c-0.4,0-0.8,0.5-0.8,2.2l-0.4,7.3c-0.4,5.1-0.8,10.8-1.2,16.8
		c0,0.5,0,1.1,0.2,1.1c0.2,0.5,0.2,0.5,0.4,0.5h46.8c0.8,0,1.6,1.1,2,2.7c0.6,1.6,0.6,4,0.6,6.2c-0.2,2.2-0.6,4.6-1.2,6.2
		c-0.6,1.6-1.4,2.2-2.4,2.2h-2.4C247.6,145.1,247.6,145.8,247.6,145.8z M249.7,18.6c1.6,0,3,1.6,4,5.1c1,3.3,1.4,7.3,1,12.4
		l-1.6,24.6c-0.2,4.6-1.2,8.9-2.6,12.4s-3,4.9-4.6,4.9h-41.1c-1.6,0-3-1.6-4-5.1s-1.4-7.3-1-12.4l1.6-24.6c0.2-4.6,1.2-8.9,2.6-12.4
		c1.4-3.3,3-5.1,4.6-5.1h7.9c0.2,0,0.4-0.5,0.4-1.1c0.2-3.3,0.8-5.7,1.6-7.8c1-2.2,1.8-3.3,3-3.3h0.4c1,0,2,1.1,2.6,3.3
		c0.6,2.2,0.8,4.6,0.6,7.8c0,0.5,0,1.1,0.4,1.1h6.2c0.2,0,0.4-0.5,0.4-1.1c0.2-3.3,0.8-5.7,1.6-7.8c1-2.2,1.8-3.3,3-3.3h0.6
		c1,0,2,1.1,2.6,3.3s0.8,4.6,0.6,7.8c0,0.5,0,1.1,0.4,1.1C240.8,18.6,249.7,18.6,249.7,18.6z M246.8,109.3c0.4,1.6,0.6,3.3,0.4,5.1
		c-0.2,2.2-0.6,4-1.2,5.1c-0.6,1.6-1.2,2.2-2,2.2h-33.9c-0.8,0-1.4-0.5-1.8-2.2c-0.4-1.6-0.6-3.5-0.4-5.1c0.2-2.2,0.6-4,1.2-5.1
		c0.6-1.6,1.4-2.2,2-2.2H245C245.8,107.1,246.4,107.7,246.8,109.3z M208.9,55c-0.4,0-0.8,0.5-0.8,2.2l-0.2,4c0,1.1,0.2,2.2,0.6,2.2
		h5.2c0.4,0,0.8-0.5,0.8-2.2l0.2-4c0-1.1-0.2-2.2-0.6-2.2H208.9z M210.3,33.1c-0.4,0-0.8,0.5-0.8,2.2l-0.2,4c0,1.1,0.2,2.2,0.6,2.2
		h5.2c0.4,0,0.8-0.5,0.8-2.2l0.2-4c0-1.1-0.2-2.2-0.6-2.2H210.3z M215,145.8c-0.4,0-0.8,0.5-0.8,2.2l-1.2,18c0,0.5,0,1.1,0.2,1.1
		c0.2,0.5,0.2,0.5,0.4,0.5l9.1-2.2c0.2,0,0.4-0.5,0.4-0.5c0-0.5,0-0.5,0-1.1c-1.4-5.1-2.4-10-3.2-15.7c-0.2-1.1-0.4-1.6-1-1.6
		L215,145.8L215,145.8z M229.9,57.2c0-1.1-0.2-2.2-0.6-2.2h-5.6c-0.4,0-0.8,0.5-0.8,2.2l-0.2,4c0,1.1,0.2,2.2,0.6,2.2h5.6
		c0.4,0,0.8-0.5,0.8-2.2L229.9,57.2z M231.3,35.3c0-1.1-0.2-2.2-0.6-2.2h-5.6c-0.4,0-0.8,0.5-0.8,2.2l-0.2,4c0,1.1,0.2,2.2,0.6,2.2
		h5.6c0.4,0,0.8-0.5,0.8-2.2L231.3,35.3z M241,146.9c0.2,0,0.2-0.5,0.2-0.5s0-0.5-0.2-0.5h-12.1c-0.2,0-0.2,0-0.4,0.5
		c-0.2,0.5-0.2,0.5,0,1.1c0.8,3.3,2,6.2,3.2,8.9c0.4,0.5,0.8,1.1,1.2,0.5C235.3,154.7,237.8,151.4,241,146.9z M244.2,62.9
		c0.4,0,0.8-0.5,0.8-2.2l0.2-4c0-1.1-0.2-2.2-0.6-2.2H239c-0.4,0-0.8,0.5-0.8,2.2l-0.2,4c0,1.1,0.2,2.2,0.6,2.2H244.2z M245.6,41.5
		c0.4,0,0.8-0.5,0.8-2.2l0.2-4c0-1.1-0.2-2.2-0.6-2.2h-5.6c-0.4,0-0.8,0.5-0.8,2.2l-0.2,4c0,1.1,0.2,2.2,0.6,2.2H245.6z"/>
	<path class="st14" d="M325.3,131.8c0.6,2.2,0.8,2.7,0.8,2.7s0,1.1-0.2,4c-0.2,2.9-0.6,5.1-1.4,6.7c-0.8,1.6-1.8,2.7-2.6,2.7h-16.5
		c0,0-0.2,0-0.2,0.5v0.5c4.4,7.8,9.7,14,16.3,18.4c1,0.5,1.6,2.2,1.8,5.1c0,1.1,0,1.6,0,2.7c-0.2,1.6-0.4,3.3-1,5.1
		c-1,3.3-2.4,5.7-3.8,7.3c-0.8,0.5-1.6,1.1-2.2,1.1s-1.2-0.5-1.8-1.1c-6.7-6.7-12.5-16.2-17.1-29.2c0,0-0.2-0.5-0.4,0
		c-0.2,0-0.2,0.5-0.2,1.1l-1.4,22.4c-0.2,3.3-0.8,6.2-1.8,8.4c-1,2.2-2,3.3-3.2,3.3c-1.2,0-2-1.1-2.8-3.3c-0.8-2.2-1-5.1-0.8-8.4
		l1.4-21.1c0-0.5,0-0.5-0.2-1.1c-0.2,0-0.2,0-0.4,0c-6.2,11.8-13.1,21.3-20.8,28.1c-0.6,0.5-1.2,0.5-1.8,0.5c-0.6,0-1.2-0.5-1.8-1.1
		c-1.2-1.1-2-3.3-2.6-6.7c-0.4-1.6-0.4-2.7-0.4-4.6c0-1.1,0.2-1.6,0.2-2.7c0.6-2.7,1.2-4.6,2.2-5.1c7.1-5.1,13.5-11.8,18.8-19.7
		c0.2,0,0.2-0.5,0.2-0.5s0-0.5-0.2-0.5h-16.3c-1,0-1.8-1.1-2.4-2.7c-0.6-1.6-0.8-4.6-0.6-6.7c0.2-2.7,0.6-5.1,1.4-6.7
		c0.8-2.2,1.8-2.7,2.8-2.7h23c0.4,0,0.8-0.5,0.8-2.2l0.4-5.1c0-1.1-0.2-2.2-0.6-2.2h-16.9c-0.8,0-1.6-1.1-2-2.7
		c-0.4-1.6-0.6-4-0.4-6.2c0.2-2.2,0.6-4.6,1.2-6.2c0.6-1.6,1.4-2.7,2.4-2.7h16.9c0.4,0,0.8-0.5,0.8-2.2l0.4-5.1
		c0-1.1-0.2-2.2-0.6-2.2h-20.2c-1,0-1.6-1.1-2.2-2.7s-0.8-4-0.6-6.7c0.2-2.7,0.6-4.6,1.4-6.7c0.8-1.6,1.6-2.7,2.6-2.7h9.7
		c0.2,0,0.2,0,0.4-0.5c0.2-0.5,0.2-0.5,0.2-1.1c-0.2-4.6-0.6-8.4-1-11.8c0-0.5,0-1.1,0-1.6c0.2-0.5,0.2-0.5,0.4-1.1h-11.3
		c-1,0-1.8-1.1-2.2-2.7c-0.6-2-0.8-4.9-0.6-7.1c0.2-2.7,0.6-5.1,1.4-6.7c0.8-1.6,1.8-2.7,2.6-2.7h5.4c0.2,0,0.2,0,0.4-0.5
		c0.2-0.5,0.2-1.1,0.2-1.1c-0.4-4-0.8-8.4-1.4-13.5c-0.2-1.6-0.2-2.7-0.2-4.6c0-1.1,0.2-2.2,0.4-3.3c0.4-2.7,1.2-4.6,2.2-5.1
		c0.6-0.5,1.2-0.5,1.8-0.5c0.6,0,1,0,1.6,0.5c1,1.1,1.8,2.7,2.2,5.7c0.6,4,1,7.3,1.4,10.6c0.2,1.1,0.2,2.2,0.2,4
		c0,1.1-0.2,2.2-0.4,3.3c-0.6,2.2-1.2,4-2.2,5.1v0.5h5.4c0.4,0,0.8-0.5,0.8-2.2l1.2-19.7c0.2-3.3,0.8-5.7,1.8-7.8s2-3.3,3-3.3
		s2,1.1,2.6,3.3c0.6,2.2,0.8,5.1,0.6,7.8l-1.2,19.7c0,1.1,0.2,2.2,0.6,2.2h4c0.4,0,0.8-0.5,0.8-2.2l1.2-19.7
		c0.2-3.3,0.8-5.7,1.8-7.8s2-3.3,3-3.3s2,1.1,2.6,3.3c0.6,2.2,0.8,5.1,0.6,7.8l-1.2,19.7c0,1.1,0.2,2.2,0.6,2.2h5.4c0,0,0,0,0-0.5
		c-0.6-0.5-1-1.6-1-2.7c0-1.1,0-3.3,0.4-5.1c0.8-3.3,1.6-7.3,2.6-11.1c0.6-3.3,1.6-6.2,3-7.8c0.8-1.1,1.8-1.6,2.6-1.6
		c0.4,0,0.8,0,1.2,0.5c1,0.5,1.8,2.7,2,5.7c0,1.1,0,2.7,0,4c-0.2,1.6-0.4,3.3-0.8,5.1c-1.4,5.1-2.6,9.5-3.6,12.9
		c-0.2,0.5-0.2,0.5-0.2,1.1c0,0.5,0.2,0.5,0.4,0.5h5.2c1,0,1.8,1.1,2.4,2.7c0.6,1.6,0.8,4.6,0.6,6.7c-0.2,2.7-0.6,5.1-1.4,6.7
		c-0.8,1.6-1.6,2.7-2.6,2.7h-9.3c-0.4,0-0.8,0.5-1.2,1.6c-1.2,4.6-2.2,8.4-3.4,12.9c0,0.5,0,0.5,0,1.1c0,0.5,0.2,0.5,0.2,0.5h9.9
		c1,0,1.6,1.1,2.2,2.7c0.6,1.6,0.8,4,0.6,6.7c-0.2,2.7-0.6,5.1-1.4,6.7c-0.8,1.6-1.6,2.7-2.6,2.7h-20.8c-0.4,0-0.8,0.5-0.8,2.2
		l-0.4,5.1c0,1.1,0.2,2.2,0.6,2.2h17.7c0.8,0,1.6,1.1,2,2.7c0.6,1.6,0.6,4,0.6,6.2c-0.2,2.2-0.6,4.6-1.2,6.2
		c-0.8,1.6-1.4,2.7-2.4,2.7h-17.7c-0.4,0-0.8,0.5-0.8,2.2l-0.4,5.1c0,1.1,0.2,2.2,0.6,2.2h23.6C324.2,129,324.7,130.1,325.3,131.8z
		 M307.5,60.7c0.2-0.5,0.2-0.5,0-1.1c0-0.5-0.2-0.5-0.4-0.5h-15.7c-0.2,0-0.2,0-0.4,0.5c0,0.5-0.2,0.5-0.2,1.1
		c0.6,4,0.8,7.8,1.2,11.1c0,0.5,0,1.6-0.2,2.2c-0.2,0.5-0.4,1.1-0.8,1.1h12.5c0.4,0,0.8-0.5,1-1.6C305.5,70.1,306.5,66.1,307.5,60.7
		z"/>
	<path class="st14" d="M353.5,84.2c0,0.5,0,1.1,0,1.1c0,0.5,0.2,0.5,0.4,0.5H395c1.6,0,3,1.6,4,5.1c0.8,3.3,1.2,6.7,1,11.1
		c-0.6,9.5-1.8,24.6-3.6,44.3c-1,10.6-1.8,19.1-2.6,25.2c-0.8,6-1.6,10.6-2.6,12.9c-1,2.7-1.8,4.6-2.8,6.2c-1,1.1-2,2.2-3.2,2.7
		c-0.8,0.5-1.8,0.5-3,0.5c0,0-0.2,0-0.4,0c-1.6,0-2.8-1.6-3.8-4.6c-1.2-3.3-1.8-7.3-2.2-12.4c0,0,0-0.5,0-1.1c0-1.1-0.4-1.6-0.8-1.6
		h-15.7c-0.2,0-0.4,0.5-0.4,1.1c-0.2,2.7-0.8,5.7-1.6,7.3c-0.8,1.6-1.8,3.3-2.8,3.3h-0.2c-1.2,0-2-1.1-2.6-3.3
		c-0.6-2.2-0.8-4.6-0.6-7.8l2.4-39.7c0.2-4.6,1.2-8.9,2.6-12.4c1.4-3.3,3-5.1,4.6-5.1h16.1c1.6,0,3,1.6,4,5.1c1,3.5,1.4,7.3,1,12.4
		l-2.2,34.8c0,1.1,0.2,2.2,0.6,2.2h2.2h0.2c0.8,0,1.6-1.1,2.2-2.7c1.4-4,3.6-24.1,6.3-60.5c0-0.5,0-1.1-0.2-1.1
		c-0.2-0.5-0.2-0.5-0.4-0.5h-38.3c-0.4,0-0.8,0.5-0.8,2.2c-3,28.6-6.7,52.1-11.3,70c-0.8,2.7-1.6,4.6-2.8,4.6c-0.2,0-0.4,0-0.6,0
		c-1,0-1.8-1.1-2.4-2.7c-0.8-2.2-1.2-5.1-1.2-7.8c0-1.1,0-2.2,0-3.3c0.2-2.2,0.4-4.6,1-6.2c1.8-7.3,3.4-15.1,5-24.1
		c1.4-8.4,2.6-17.3,3.6-27c1-8.9,1.8-17.3,2.4-24.6c0.6-7.3,1.2-15.1,1.6-23.5l2-31.9c0.2-4.6,1.2-8.9,2.6-12.4
		c1.4-3.3,3-5.1,4.6-5.1h38.5c1.8,0,3,1.6,4,5.1s1.2,7.3,1,12.4L398,56.1c-0.2,4.6-1.2,8.9-2.6,12.4c-1.4,3.3-3,5.1-4.6,5.1h-35.5
		c-0.4,0-0.8,0.5-0.8,2.2C353.7,80.7,353.5,83.6,353.5,84.2z M390.4,37.7c0-1.1-0.2-2.2-0.6-2.2h-32.5c-0.4,0-0.8,0.5-0.8,2.2
		l-0.8,13.5c0,1.1,0.2,2.2,0.6,2.2h32.5c0.4,0,0.8-0.5,0.8-2.2L390.4,37.7z M371.8,155.8c0.4,0,0.8-0.5,0.8-2.2l0.8-14
		c0-1.1-0.2-2.2-0.6-2.2h-10.9c-0.4,0-0.8,0.5-0.8,2.2l-0.8,14c0,1.1,0.2,2.2,0.6,2.2H371.8z"/>
</g>
<g id="圖層_2_2_" class="st0">
	<g class="st1">
		<g>
			<g>
				<g>
					<g>
						<g>
							<g>
								<defs>
									<path id="SVGID_00000099661607957787895710000006769508320950141611_" d="M20.5,29.5c9.1-3.3,13.7,5.5,12.4,31.8
										c3.8-21.7,6.4-48.9-5-61.3C25.8,8.8,23,21.3,20.5,29.5"/>
								</defs>
								<clipPath id="SVGID_00000088812946671877290240000001082353507018912181_">
									<use xlink:href="#SVGID_00000099661607957787895710000006769508320950141611_"  style="overflow:visible;"/>
								</clipPath>
								
									<linearGradient id="SVGID_00000176764919125598885550000008620161975707127463_" gradientUnits="userSpaceOnUse" x1="-2883.9609" y1="87.8327" x2="-2875.8792" y2="87.8327" gradientTransform="matrix(-8.3315 -7.5017 7.5017 -8.3315 -24625.3535 -20844.0234)">
									<stop  offset="0" style="stop-color:#C94F1B"/>
									<stop  offset="0.41" style="stop-color:#FAB900"/>
									<stop  offset="1" style="stop-color:#FABA00"/>
								</linearGradient>
								
									<polygon style="clip-path:url(#SVGID_00000088812946671877290240000001082353507018912181_);fill:url(#SVGID_00000176764919125598885550000008620161975707127463_);" points="
									31.1,101.5 13.4,34.2 29.1,-40 46.6,28.2 								"/>
							</g>
						</g>
					</g>
				</g>
			</g>
		</g>
		<g>
			<g>
				<g>
					<g>
						<g>
							<g>
								<defs>
									<path id="SVGID_00000168808539008115098420000000329145967928579218_" d="M-0.1,137.1c-5.1,61.8,27.2-8.2,33-72.9
										C19.4,120,4.4,144.9-0.1,137.1"/>
								</defs>
								<clipPath id="SVGID_00000034793837045445156140000014597464810869215370_">
									<use xlink:href="#SVGID_00000168808539008115098420000000329145967928579218_"  style="overflow:visible;"/>
								</clipPath>
								
									<linearGradient id="SVGID_00000175317036516966161940000003095279596058216075_" gradientUnits="userSpaceOnUse" x1="-2520.9517" y1="32.379" x2="-2518.5413" y2="32.379" gradientTransform="matrix(17.7331 -1.24 1.24 17.7331 44659.9414 -3567.5977)">
									<stop  offset="0" style="stop-color:#AB4419"/>
									<stop  offset="0.1156" style="stop-color:#CA720F"/>
									<stop  offset="0.28" style="stop-color:#FABA00"/>
									<stop  offset="0.7435" style="stop-color:#EDA800"/>
									<stop  offset="0.78" style="stop-color:#ECA600"/>
									<stop  offset="0.9161" style="stop-color:#C26710"/>
									<stop  offset="1" style="stop-color:#AB4419"/>
								</linearGradient>
								
									<polygon style="clip-path:url(#SVGID_00000034793837045445156140000014597464810869215370_);fill:url(#SVGID_00000175317036516966161940000003095279596058216075_);" points="
									-7.4,64.6 32.9,52.6 35.2,197.5 -5,210 								"/>
							</g>
						</g>
					</g>
				</g>
			</g>
		</g>
		<g>
			<g>
				<g>
					<g>
						<g>
							<g>
								<defs>
									<path id="SVGID_00000072983210555174591350000006470958013815444927_" d="M41,48.9c-15.4,3.3-43,52.6-41,87.6
										c4.8-31.8,49.4-102.9,48.6-41.1c5.1-31.8,1.9-45.6-4.7-47.1C43.9,48.9,41,48.9,41,48.9z"/>
								</defs>
								<clipPath id="SVGID_00000059302195952796469980000010641922413658060421_">
									<use xlink:href="#SVGID_00000072983210555174591350000006470958013815444927_"  style="overflow:visible;"/>
								</clipPath>
								
									<linearGradient id="SVGID_00000124148240993251461070000014103899931486636679_" gradientUnits="userSpaceOnUse" x1="-2767.4575" y1="-51.9138" x2="-2765.4622" y2="-51.9138" gradientTransform="matrix(-25.6115 0 0 -25.6115 -70827.5625 -1243.9602)">
									<stop  offset="0" style="stop-color:#9F0038"/>
									<stop  offset="0.25" style="stop-color:#E00078"/>
									<stop  offset="1" style="stop-color:#E2007A"/>
								</linearGradient>
								
									<rect x="-2" y="34.2" style="clip-path:url(#SVGID_00000059302195952796469980000010641922413658060421_);fill:url(#SVGID_00000124148240993251461070000014103899931486636679_);" width="55.4" height="102.9"/>
							</g>
						</g>
					</g>
				</g>
			</g>
		</g>
		<g>
			<g>
				<g>
					<g>
						<g>
							<g>
								<defs>
									<path id="SVGID_00000149351854844399336630000011265211271212206731_" d="M22,137.1c-9.7,54,23.2,33.1,26.3-39.6
										C44.9,122.7,24.2,173.1,22,137.1"/>
								</defs>
								<clipPath id="SVGID_00000005238955945349976230000014253096757005331884_">
									<use xlink:href="#SVGID_00000149351854844399336630000011265211271212206731_"  style="overflow:visible;"/>
								</clipPath>
								
									<linearGradient id="SVGID_00000114778290196357508080000005379157683835361683_" gradientUnits="userSpaceOnUse" x1="-2477.8752" y1="34.6974" x2="-2475.8801" y2="34.6974" gradientTransform="matrix(14.0755 0 0 14.0755 34897.668 -344.7151)">
									<stop  offset="0" style="stop-color:#8C052B"/>
									<stop  offset="7.578820e-02" style="stop-color:#A60343"/>
									<stop  offset="0.25" style="stop-color:#E00078"/>
									<stop  offset="1" style="stop-color:#E2007A"/>
								</linearGradient>
								
									<rect x="12.3" y="97.3" style="clip-path:url(#SVGID_00000005238955945349976230000014253096757005331884_);fill:url(#SVGID_00000114778290196357508080000005379157683835361683_);" width="35.9" height="92.7"/>
							</g>
						</g>
					</g>
				</g>
			</g>
		</g>
		<g>
			<g>
				<g>
					<g>
						<g>
							<g>
								<defs>
									<path id="SVGID_00000163053261104356076930000015961525421614154928_" d="M22.1,136.2c15.2-40.2,21.4-14.7,11.5,38.2
										c13.9-47.1,9.8-75.6,2.7-75.6C31.8,98.8,25.7,110.2,22.1,136.2"/>
								</defs>
								<clipPath id="SVGID_00000108299690326588896740000000118851010663452808_">
									<use xlink:href="#SVGID_00000163053261104356076930000015961525421614154928_"  style="overflow:visible;"/>
								</clipPath>
								
									<linearGradient id="SVGID_00000122710420963966918980000015077171552710487438_" gradientUnits="userSpaceOnUse" x1="-2912.4336" y1="58.2702" x2="-2905.4312" y2="58.2702" gradientTransform="matrix(-8.7116 -6.0999 6.0999 -8.7116 -25667.5977 -17105.2246)">
									<stop  offset="0" style="stop-color:#00483F"/>
									<stop  offset="4.603259e-02" style="stop-color:#0A5147"/>
									<stop  offset="0.1247" style="stop-color:#256A5B"/>
									<stop  offset="0.2266" style="stop-color:#52927C"/>
									<stop  offset="0.34" style="stop-color:#8BC6A7"/>
									<stop  offset="1" style="stop-color:#8DC9AB"/>
								</linearGradient>
								
									<polygon style="clip-path:url(#SVGID_00000108299690326588896740000000118851010663452808_);fill:url(#SVGID_00000122710420963966918980000015077171552710487438_);" points="
									39.1,224.7 13.5,148.6 30.5,45.7 56,121.8 								"/>
							</g>
						</g>
					</g>
				</g>
			</g>
		</g>
		<g>
			<g>
				<g>
					<g>
						<g>
							<g>
								<defs>
									<path id="SVGID_00000059292234600440272210000004843083630301736877_" d="M1.7,268.4c-6.8,79.8,23.8-6.9,32.1-91.8
										C25.1,213.1,4.1,292.9,1.7,268.4"/>
								</defs>
								<clipPath id="SVGID_00000079450403848574335270000017018524889403640217_">
									<use xlink:href="#SVGID_00000059292234600440272210000004843083630301736877_"  style="overflow:visible;"/>
								</clipPath>
								
									<linearGradient id="SVGID_00000147904435982890249620000003318033175987715754_" gradientUnits="userSpaceOnUse" x1="-2512.9241" y1="16.03" x2="-2510.3042" y2="16.03" gradientTransform="matrix(17.6206 1.5416 -1.5416 17.6206 44298.0039 3851.4592)">
									<stop  offset="0" style="stop-color:#00483F"/>
									<stop  offset="4.603259e-02" style="stop-color:#0A5147"/>
									<stop  offset="0.1247" style="stop-color:#256A5B"/>
									<stop  offset="0.2266" style="stop-color:#52927C"/>
									<stop  offset="0.34" style="stop-color:#8BC6A7"/>
									<stop  offset="0.66" style="stop-color:#8BC8AA"/>
									<stop  offset="0.6796" style="stop-color:#80BEA2"/>
									<stop  offset="0.7878" style="stop-color:#498C78"/>
									<stop  offset="0.8811" style="stop-color:#226759"/>
									<stop  offset="0.9549" style="stop-color:#095046"/>
									<stop  offset="1" style="stop-color:#00483F"/>
								</linearGradient>
								
									<polygon style="clip-path:url(#SVGID_00000079450403848574335270000017018524889403640217_);fill:url(#SVGID_00000147904435982890249620000003318033175987715754_);" points="
									-4.8,161.5 37.3,177.1 33.5,362 -8.7,346.4 								"/>
							</g>
						</g>
					</g>
				</g>
			</g>
		</g>
		<g>
			<g>
				<g>
					<g>
						<g>
							<g>
								<defs>
									<path id="SVGID_00000127008730704260586200000014678571906945697453_" d="M1.7,268.4c5.4-53.1,57.5-144.3,49.7-24.4
										c12.3-58.6,5.6-82.5-6.4-82.5C28.4,161.5,1.9,206.2,1.7,268.4"/>
								</defs>
								<clipPath id="SVGID_00000134934045972031712480000013053823118506194869_">
									<use xlink:href="#SVGID_00000127008730704260586200000014678571906945697453_"  style="overflow:visible;"/>
								</clipPath>
								
									<linearGradient id="SVGID_00000130635713362840085570000006097207812351940270_" gradientUnits="userSpaceOnUse" x1="-2758.4248" y1="9.2887" x2="-2751.1982" y2="9.2887" gradientTransform="matrix(-22.9188 -17.2706 17.2706 -22.9188 -63266.9102 -47169.9805)">
									<stop  offset="0" style="stop-color:#003F7D"/>
									<stop  offset="0.3063" style="stop-color:#007EC1"/>
									<stop  offset="0.36" style="stop-color:#0089CD"/>
									<stop  offset="0.78" style="stop-color:#008BD0"/>
									<stop  offset="0.8687" style="stop-color:#006BAD"/>
									<stop  offset="1" style="stop-color:#003F7D"/>
								</linearGradient>
								
									<polygon style="clip-path:url(#SVGID_00000134934045972031712480000013053823118506194869_);fill:url(#SVGID_00000130635713362840085570000006097207812351940270_);" points="
									41.3,395.3 -14.6,216 24.2,-3.1 79.9,176.2 								"/>
							</g>
						</g>
					</g>
				</g>
			</g>
		</g>
		<g>
			<g>
				<g>
					<g>
						<g>
							<g>
								<defs>
									<path id="SVGID_00000178173303197988955440000012869411889754508934_" d="M51.4,243.5c-4.1,21.7-23.8,56.2-22.4-5.5
										C16.1,289.1,41.9,337.1,51.4,243.5"/>
								</defs>
								<clipPath id="SVGID_00000029046145953753620910000001153875692858692274_">
									<use xlink:href="#SVGID_00000178173303197988955440000012869411889754508934_"  style="overflow:visible;"/>
								</clipPath>
								
									<linearGradient id="SVGID_00000169543882917943589140000001597718282534964103_" gradientUnits="userSpaceOnUse" x1="-2462.1379" y1="49.2274" x2="-2460.1428" y2="49.2274" gradientTransform="matrix(12.9935 0 0 12.9935 32017.3301 -352.75)">
									<stop  offset="0" style="stop-color:#003F7D"/>
									<stop  offset="0.2042" style="stop-color:#007EC1"/>
									<stop  offset="0.24" style="stop-color:#0089CD"/>
									<stop  offset="1" style="stop-color:#008BD0"/>
								</linearGradient>
								
									<rect x="16.1" y="237.5" style="clip-path:url(#SVGID_00000029046145953753620910000001153875692858692274_);fill:url(#SVGID_00000169543882917943589140000001597718282534964103_);" width="35.3" height="98.7"/>
							</g>
						</g>
					</g>
				</g>
			</g>
		</g>
		<g>
			<g>
				<g>
					<g>
						<g>
							<g>
								<defs>
									<path id="SVGID_00000157991907023860851920000011965941464378675607_" d="M29.1,237.5c4.8-16.2,10.4-6.9,10.4,17.1l6-16.2
										c-1-16.2-4-25.8-7.4-25.8C34.9,212.7,31.6,220,29.1,237.5"/>
								</defs>
								<clipPath id="SVGID_00000003815220588272539080000007101188364459484084_">
									<use xlink:href="#SVGID_00000157991907023860851920000011965941464378675607_"  style="overflow:visible;"/>
								</clipPath>
								
									<linearGradient id="SVGID_00000076573918419702942060000005788630961316211597_" gradientUnits="userSpaceOnUse" x1="-2975.1396" y1="180.3942" x2="-2965.761" y2="180.3942" gradientTransform="matrix(-4.6531 -5.9557 5.9557 -4.6531 -14858.7158 -16617.9395)">
									<stop  offset="0" style="stop-color:#003F7D"/>
									<stop  offset="0.15" style="stop-color:#00407E"/>
									<stop  offset="0.2987" style="stop-color:#006CAE"/>
									<stop  offset="0.39" style="stop-color:#0089CD"/>
									<stop  offset="1" style="stop-color:#008BD0"/>
								</linearGradient>
								
									<polygon style="clip-path:url(#SVGID_00000003815220588272539080000007101188364459484084_);fill:url(#SVGID_00000076573918419702942060000005788630961316211597_);" points="
									35.2,287.8 24.2,228.8 39.1,179.1 50.1,238.4 								"/>
							</g>
						</g>
					</g>
				</g>
			</g>
		</g>
	</g>
</g>
</svg>
