<?xml version="1.0" encoding="utf-8"?>
<!-- Generator: Adobe Illustrator 26.4.1, SVG Export Plug-In . SVG Version: 6.00 Build 0)  -->
<svg version="1.1"
	 id="svg2" xmlns:svg="http://www.w3.org/2000/svg" xmlns:dc="http://purl.org/dc/elements/1.1/" xmlns:cc="http://creativecommons.org/ns#" xmlns:rdf="http://www.w3.org/1999/02/22-rdf-syntax-ns#"
	 xmlns="http://www.w3.org/2000/svg" xmlns:xlink="http://www.w3.org/1999/xlink" x="0px" y="0px" viewBox="0 0 93.3 93.3"
	 style="enable-background:new 0 0 93.3 93.3;" xml:space="preserve">
<style type="text/css">
	.st0{clip-path:url(#SVGID_00000049188846822747656260000015148462130031937416_);}
	.st1{fill:none;stroke:#FFFFFF;stroke-width:0.25;stroke-miterlimit:13.3333;}
	.st2{fill:none;stroke:#FFFFFF;stroke-width:0.25;stroke-linecap:round;stroke-linejoin:round;stroke-miterlimit:17.7777;}
	.st3{clip-path:url(#SVGID_00000096762191208501481410000015693551446479956615_);}
	.st4{clip-path:url(#SVGID_00000070110238326967827360000007749285415515302035_);}
	.st5{fill:#FFFFFF;}
	.st6{font-family:'Arial-BoldMT';}
	.st7{font-size:12.3823px;}
	.st8{fill:none;stroke:#FFFFFF;stroke-width:0.25;stroke-miterlimit:10;}
</style>
<g id="g10" transform="matrix(1.3333333,0,0,-1.3333333,0,93.333333)">
	<g id="g12">
		<g>
			<g>
				<defs>
					<rect id="SVGID_00000014603937046664469410000013657271175569479332_" x="-27.2" y="-27.2" width="124.4" height="124.4"/>
				</defs>
				<clipPath id="SVGID_00000109010371800867000560000003846058310502131600_">
					<use xlink:href="#SVGID_00000014603937046664469410000013657271175569479332_"  style="overflow:visible;"/>
				</clipPath>
				<g id="g14" style="clip-path:url(#SVGID_00000109010371800867000560000003846058310502131600_);">
					<g id="g20" transform="translate(32.4391,53.298)">
						<path id="path22" class="st1" d="M0,0c0,0-3,1.8-0.5,4.2C-0.5,4.2,3,2.8,0,0"/>
					</g>
					<g id="g24" transform="translate(32.4391,53.298)">
						<path id="path26" class="st2" d="M0,0c0,0-3,1.8-0.5,4.2C-0.5,4.2,3,2.8,0,0z"/>
					</g>
					<g id="g28" transform="translate(41.81,51.7778)">
						<path id="path30" class="st1" d="M0,0c0,0-2.9,1.2-1.4,5.2C-1.4,5.2,3.8,3.5,0,0"/>
					</g>
					<g id="g32" transform="translate(41.81,51.7778)">
						<path id="path34" class="st2" d="M0,0c0,0-2.9,1.2-1.4,5.2C-1.4,5.2,3.8,3.5,0,0z"/>
					</g>
					<g id="g36" transform="translate(39.4556,48.8827)">
						<path id="path38" class="st1" d="M0,0c0,0-4.7,0.6-3.2,5.5C-3.2,5.5,2.1,5.8,0,0"/>
					</g>
					<g id="g40" transform="translate(39.4556,48.8827)">
						<path id="path42" class="st2" d="M0,0c0,0-4.7,0.6-3.2,5.5C-3.2,5.5,2.1,5.8,0,0z"/>
					</g>
					<g id="g44" transform="translate(42.8419,49.7085)">
						<path id="path46" class="st1" d="M0,0c0,0,1.5,4.1,6.1,0.5C6.1,0.5,3.3-2.9,0,0"/>
					</g>
					<g id="g48" transform="translate(42.8419,49.7085)">
						<path id="path50" class="st2" d="M0,0c0,0,1.5,4.1,6.1,0.5C6.1,0.5,3.3-2.9,0,0z"/>
					</g>
					<g id="g52" transform="translate(47.849,43.593)">
						<path id="path54" class="st1" d="M0,0c0,0-2.3,3.6,3.2,5.3C3.2,5.3,4.3,1,0,0"/>
					</g>
					<g id="g56" transform="translate(47.849,43.593)">
						<path id="path58" class="st2" d="M0,0c0,0-2.3,3.6,3.2,5.3C3.2,5.3,4.3,1,0,0z"/>
					</g>
					<g id="g60" transform="translate(56.1164,37.9998)">
						<path id="path62" class="st2" d="M0,0c0,11.8-9.5,21.4-21.1,21.4S-42.2,11.8-42.2,0s9.5-21.4,21.1-21.4S0-11.8,0,0z"/>
					</g>
					<g id="g64" transform="translate(57.6732,37.9998)">
						<path id="path66" class="st2" d="M0,0c0,12.7-10.2,23-22.7,23S-45.3,12.7-45.3,0s10.2-23,22.7-23S0-12.7,0,0z"/>
					</g>
					<g id="g68" transform="translate(37.9613,38.6656)">
						<path id="path70" class="st2" d="M0,0c0,0-3,5.3,1,8.4c3.7,2.8,3,7,2.7,7.5"/>
					</g>
					<g id="g72" transform="translate(39.4012,47.4185)">
						<path id="path74" class="st2" d="M0,0c0,0,0.6,2.4-1.4,4.4"/>
					</g>
					<g id="g76" transform="translate(30.1709,51.1402)">
						<path id="path78" class="st1" d="M0,0c0,0-3.2-3.5-6.3,0.5C-6.3,0.5-3.4,5.1,0,0"/>
					</g>
					<g id="g80" transform="translate(30.1709,51.1402)">
						<path id="path82" class="st2" d="M0,0c0,0-3.2-3.5-6.3,0.5C-6.3,0.5-3.4,5.1,0,0z"/>
					</g>
					<g id="g84" transform="translate(31.3159,50.2469)">
						<path id="path86" class="st2" d="M0,0c0,0-1.6,1.9-4.3,1.4"/>
					</g>
					<g id="g88" transform="translate(40.4315,48.5333)">
						<path id="path90" class="st2" d="M0,0c0,0,1.8,1.5,5,1.5"/>
					</g>
					<g id="g92" transform="translate(47.3463,40.9285)">
						<path id="path94" class="st2" d="M0,0c0,0-0.1,2.4,1.8,4.9"/>
					</g>
					<g id="g96" transform="translate(43.0821,46.1742)">
						<path id="path98" class="st2" d="M0,0c0.3-1.6-2-1.1-1.8,0.4s1.7,1.4,2.7,0.8c1.4-1,1.6-2.8,0.7-4.2C1.2-3.6-0.6-5.2-1.3-4.9"
							/>
					</g>
					<g id="g100" transform="translate(32.9919,42.0187)">
						<path id="path102" class="st2" d="M0,0c0.9,0.1,1.2,1.3,1.2,2.1c0,1.1-0.4,2-1.1,2.9c-1.1,1.3-2.7,3.4-1,5
							c0.8,0.7,2.1,0.6,2.3-0.5C1.6,8.6,0.7,7.2,0,8.2"/>
					</g>
					<g id="g104" transform="translate(37.2733,44.8592)">
						<path id="path106" class="st2" d="M0,0c0.2,0.9,0.6,2.7-1.2,2.8c-1.1,0-0.8-1.9,0-1.4"/>
					</g>
					<g id="g108" transform="translate(31.946,51.9094)">
						<path id="path110" class="st2" d="M0,0c0,0,0.9,1.5,0.4,3.4"/>
					</g>
					<g id="g112" transform="translate(26.371,44.468)">
						<path id="path114" class="st1" d="M0,0c0,0-3,1.8-0.5,4.2C-0.5,4.2,3,2.8,0,0"/>
					</g>
					<g id="g116" transform="translate(26.371,44.468)">
						<path id="path118" class="st2" d="M0,0c0,0-3,1.8-0.5,4.2C-0.5,4.2,3,2.8,0,0z"/>
					</g>
					<g id="g120" transform="translate(25.8779,43.0795)">
						<path id="path122" class="st2" d="M0,0c0,0,0.9,1.5,0.4,3.4"/>
					</g>
					<g id="g124" transform="translate(21.7201,44.9141)">
						<path id="path126" class="st1" d="M0,0c0,0,4,2.5,0.7,5.7C0.7,5.7-4.1,3.8,0,0"/>
					</g>
					<g id="g128" transform="translate(21.7201,44.9141)">
						<path id="path130" class="st2" d="M0,0c0,0,4,2.5,0.7,5.7C0.7,5.7-4.1,3.8,0,0z"/>
					</g>
					<g id="g132" transform="translate(22.3874,43.0352)">
						<path id="path134" class="st2" d="M0,0c0,0-1.3,2.1-0.5,4.6"/>
					</g>
					<g id="g136" transform="translate(30.5985,42.8369)">
						<path id="path138" class="st2" d="M0,0c0.9,0.1,1.6,1.6,1.4,2.4c-0.1,0.8-0.8,2-1.7,2.2C-1.1,4.8-2,4.1-2,3.2
							C-2.1,1.7,0.1,2-0.3,3"/>
					</g>
					<g id="g140" transform="translate(19.4667,42.0242)">
						<path id="path142" class="st2" d="M0,0c-1.3-0.5-3.4,1.2-3.2,2.7C-2.9,4-1,4.7,0,3.8C0.8,3.2,0.8,1-0.5,1.1
							C-1.2,1.1-2,3-1.3,3.2"/>
					</g>
				</g>
			</g>
			<g>
				<rect id="SVGID_1_" x="-11.7" y="81.6" class="st1" width="93.3" height="-93.3"/>
			</g>
		</g>
	</g>
	<g id="g144">
		<g>
			<g>
				<defs>
					<path id="SVGID_00000061465579290165655940000003785836556272867725_" d="M13.9,38c0-11.8,9.5-21.4,21.1-21.4l0,0
						c11.7,0,21.1,9.6,21.1,21.4l0,0c0,11.8-9.5,21.4-21.1,21.4l0,0C23.3,59.4,13.9,49.8,13.9,38"/>
				</defs>
				<clipPath id="SVGID_00000086660117034180289320000001161705458585753241_">
					<use xlink:href="#SVGID_00000061465579290165655940000003785836556272867725_"  style="overflow:visible;"/>
				</clipPath>
				<g id="g146" style="clip-path:url(#SVGID_00000086660117034180289320000001161705458585753241_);">
					<g id="g152" transform="translate(52.9146,16.4172)">
						<path id="path154" class="st1" d="M0,0h-19.5C-19.5,0-6.9,11.2,0,0"/>
					</g>
					<g id="g156" transform="translate(52.9146,16.4172)">
						<path id="path158" class="st2" d="M0,0h-19.5C-19.5,0-6.9,11.2,0,0z"/>
					</g>
					<g id="g160" transform="translate(21.6668,16.4172)">
						<path id="path162" class="st1" d="M0,0h27.7C27.7,0,9.7,15.8,0,0"/>
					</g>
					<g id="g164" transform="translate(21.6668,16.4172)">
						<path id="path166" class="st2" d="M0,0h27.7C27.7,0,9.7,15.8,0,0z"/>
					</g>
					<g id="g168" transform="translate(15.9714,16.4172)">
						<path id="path170" class="st1" d="M0,0h19.5C19.5,0,6.9,11.2,0,0"/>
					</g>
					<g id="g172" transform="translate(15.9714,16.4172)">
						<path id="path174" class="st2" d="M0,0h19.5C19.5,0,6.9,11.2,0,0z"/>
					</g>
				</g>
			</g>
			<g>
				<path id="SVGID_00000150789094676656585860000008360845352724344744_" class="st1" d="M13.9,38c0-11.8,9.5-21.4,21.1-21.4l0,0
					c11.7,0,21.1,9.6,21.1,21.4l0,0c0,11.8-9.5,21.4-21.1,21.4l0,0C23.3,59.4,13.9,49.8,13.9,38"/>
			</g>
		</g>
	</g>
	<g id="g176">
		<g>
			<g>
				<defs>
					<rect id="SVGID_00000033354135051590241990000014768917569445224890_" x="-27.2" y="-27.2" width="124.4" height="124.4"/>
				</defs>
				<clipPath id="SVGID_00000119829116809764719760000000006197595005578900_">
					<use xlink:href="#SVGID_00000033354135051590241990000014768917569445224890_"  style="overflow:visible;"/>
				</clipPath>
				<g id="g178" style="clip-path:url(#SVGID_00000119829116809764719760000000006197595005578900_);">
					<g id="g184" transform="translate(58.5839,29.44)">
						<path id="path186" class="st1" d="M0,0v12.9h8.9L6.8,6.4L8.9,0H0z"/>
					</g>
					<g id="g188" transform="translate(58.5839,29.44)">
						<path id="path190" class="st2" d="M0,0v12.9h8.9L6.8,6.4L8.9,0H0z"/>
					</g>
					<g id="g192" transform="translate(11.4161,29.44)">
						<path id="path194" class="st1" d="M0,0v12.9h-8.9l2.1-6.4L-8.9,0H0z"/>
					</g>
					<g id="g196" transform="translate(11.4161,29.44)">
						<path id="path198" class="st2" d="M0,0v12.9h-8.9l2.1-6.4L-8.9,0H0z"/>
					</g>
					<path id="path200" class="st2" d="M61.3,31.6H8.8v12.9h52.5V31.6z"/>
					<g id="g202" transform="translate(61.2496,31.5656)">
						<path id="path204" class="st1" d="M0,0l-2.7-2.1V0H0z"/>
					</g>
					<g id="g206" transform="translate(61.2496,31.5656)">
						<path id="path208" class="st2" d="M0,0l-2.7-2.1V0H0z"/>
					</g>
					<g id="g210" transform="translate(8.7504,31.5656)">
						<path id="path212" class="st1" d="M0,0l2.7-2.1V0H0z"/>
					</g>
					<g id="g214" transform="translate(8.7504,31.5656)">
						<path id="path216" class="st2" d="M0,0l2.7-2.1V0H0z"/>
					</g>
				</g>
			</g>
			<g>
				
					<rect id="SVGID_00000113347643610259318060000012007286751736808615_" x="-11.7" y="81.6" class="st1" width="93.3" height="-93.3"/>
			</g>
		</g>
	</g>
	<text transform="matrix(0.7393 0 0 -0.75 16.8505 34.2161)" class="st5 st6 st7">O</text>
	<text transform="matrix(0.7393 0 0 -0.75 16.8505 34.2161)" class="st8 st6 st7">O</text>
	<text transform="matrix(0.7393 0 0 -0.75 23.1581 34.2161)" class="st5 st6 st7">R</text>
	<text transform="matrix(0.7393 0 0 -0.75 23.1581 34.2161)" class="st8 st6 st7">R</text>
	<text transform="matrix(0.7393 0 0 -0.75 28.1107 34.2161)" class="st5 st6 st7">G</text>
	<text transform="matrix(0.7393 0 0 -0.75 28.1107 34.2161)" class="st8 st6 st7">G</text>
	<text transform="matrix(0.7393 0 0 -0.75 34.0247 34.2161)" class="st5 st6 st7">A</text>
	<text transform="matrix(0.7393 0 0 -0.75 34.0247 34.2161)" class="st8 st6 st7">A</text>
	<text transform="matrix(0.7393 0 0 -0.75 39.6273 34.2161)" class="st5 st6 st7">N</text>
	<text transform="matrix(0.7393 0 0 -0.75 39.6273 34.2161)" class="st8 st6 st7">N</text>
	<text transform="matrix(0.7393 0 0 -0.75 45.6508 34.2161)" class="st5 st6 st7">I</text>
	<text transform="matrix(0.7393 0 0 -0.75 45.6508 34.2161)" class="st8 st6 st7">I</text>
	<text transform="matrix(0.7393 0 0 -0.75 47.8389 34.2161)" class="st5 st6 st7">C</text>
	<text transform="matrix(0.7393 0 0 -0.75 47.8389 34.2161)" class="st8 st6 st7">C</text>
</g>
</svg>
