<?xml version="1.0" encoding="UTF-8" standalone="no"?>
<svg
   xmlns:dc="http://purl.org/dc/elements/1.1/"
   xmlns:cc="http://creativecommons.org/ns#"
   xmlns:rdf="http://www.w3.org/1999/02/22-rdf-syntax-ns#"
   xmlns:svg="http://www.w3.org/2000/svg"
   xmlns="http://www.w3.org/2000/svg"
   viewBox="0 0 93.333336 93.333336"
   height="93.333336"
   width="93.333336"
   xml:space="preserve"
   id="svg2"
   version="1.1"><metadata
     id="metadata8"><rdf:RDF><cc:Work
         rdf:about=""><dc:format>image/svg+xml</dc:format><dc:type
           rdf:resource="http://purl.org/dc/dcmitype/StillImage" /></cc:Work></rdf:RDF></metadata><defs
     id="defs6"><clipPath
       id="clipPath18"
       clipPathUnits="userSpaceOnUse"><path
         id="path16"
         d="M 0,70 H 70 V 0 H 0 Z" /></clipPath><clipPath
       id="clipPath150"
       clipPathUnits="userSpaceOnUse"><path
         id="path148"
         d="M 13.883,38 C 13.883,26.169 23.338,16.579 35,16.579 v 0 c 11.662,0 21.117,9.59 21.117,21.421 v 0 c 0,11.83 -9.455,21.421 -21.117,21.421 v 0 C 23.338,59.421 13.883,49.83 13.883,38" /></clipPath><clipPath
       id="clipPath182"
       clipPathUnits="userSpaceOnUse"><path
         id="path180"
         d="M 0,70 H 70 V 0 H 0 Z" /></clipPath></defs><g
     transform="matrix(1.3333333,0,0,-1.3333333,0,93.333333)"
     id="g10"><g
       id="g12"><g
         clip-path="url(#clipPath18)"
         id="g14"><g
           transform="translate(32.4391,53.298)"
           id="g20"><path
             id="path22"
             style="fill:#abbd81;fill-opacity:1;fill-rule:nonzero;stroke:none"
             d="M 0,0 C 0,0 -2.976,1.839 -0.493,4.193 -0.493,4.193 3.033,2.807 0,0" /></g><g
           transform="translate(32.4391,53.298)"
           id="g24"><path
             id="path26"
             style="fill:none;stroke:#544c4d;stroke-width:0.55500001;stroke-linecap:round;stroke-linejoin:round;stroke-miterlimit:10;stroke-dasharray:none;stroke-opacity:1"
             d="M 0,0 C 0,0 -2.976,1.839 -0.493,4.193 -0.493,4.193 3.033,2.807 0,0 Z" /></g><g
           transform="translate(41.81,51.7778)"
           id="g28"><path
             id="path30"
             style="fill:#abbd81;fill-opacity:1;fill-rule:nonzero;stroke:none"
             d="M 0,0 C 0,0 -2.863,1.227 -1.403,5.16 -1.403,5.16 3.78,3.509 0,0" /></g><g
           transform="translate(41.81,51.7778)"
           id="g32"><path
             id="path34"
             style="fill:none;stroke:#544c4d;stroke-width:0.55500001;stroke-linecap:round;stroke-linejoin:round;stroke-miterlimit:10;stroke-dasharray:none;stroke-opacity:1"
             d="M 0,0 C 0,0 -2.863,1.227 -1.403,5.16 -1.403,5.16 3.78,3.509 0,0 Z" /></g><g
           transform="translate(39.4556,48.8827)"
           id="g36"><path
             id="path38"
             style="fill:#abbd81;fill-opacity:1;fill-rule:nonzero;stroke:none"
             d="m 0,0 c 0,0 -4.683,0.583 -3.227,5.475 0,0 5.32,0.298 3.227,-5.475" /></g><g
           transform="translate(39.4556,48.8827)"
           id="g40"><path
             id="path42"
             style="fill:none;stroke:#544c4d;stroke-width:0.55500001;stroke-linecap:round;stroke-linejoin:round;stroke-miterlimit:10;stroke-dasharray:none;stroke-opacity:1"
             d="m 0,0 c 0,0 -4.683,0.583 -3.227,5.475 0,0 5.32,0.298 3.227,-5.475 z" /></g><g
           transform="translate(42.8419,49.7085)"
           id="g44"><path
             id="path46"
             style="fill:#abbd81;fill-opacity:1;fill-rule:nonzero;stroke:none"
             d="M 0,0 C 0,0 1.492,4.062 6.074,0.538 6.074,0.538 3.313,-2.928 0,0" /></g><g
           transform="translate(42.8419,49.7085)"
           id="g48"><path
             id="path50"
             style="fill:none;stroke:#544c4d;stroke-width:0.55500001;stroke-linecap:round;stroke-linejoin:round;stroke-miterlimit:10;stroke-dasharray:none;stroke-opacity:1"
             d="M 0,0 C 0,0 1.492,4.062 6.074,0.538 6.074,0.538 3.313,-2.928 0,0 Z" /></g><g
           transform="translate(47.849,43.593)"
           id="g52"><path
             id="path54"
             style="fill:#abbd81;fill-opacity:1;fill-rule:nonzero;stroke:none"
             d="M 0,0 C 0,0 -2.33,3.633 3.187,5.272 3.187,5.272 4.292,0.959 0,0" /></g><g
           transform="translate(47.849,43.593)"
           id="g56"><path
             id="path58"
             style="fill:none;stroke:#544c4d;stroke-width:0.55500001;stroke-linecap:round;stroke-linejoin:round;stroke-miterlimit:10;stroke-dasharray:none;stroke-opacity:1"
             d="M 0,0 C 0,0 -2.33,3.633 3.187,5.272 3.187,5.272 4.292,0.959 0,0 Z" /></g><g
           transform="translate(56.1164,37.9998)"
           id="g60"><path
             id="path62"
             style="fill:none;stroke:#544c4d;stroke-width:0.55500001;stroke-linecap:round;stroke-linejoin:round;stroke-miterlimit:10;stroke-dasharray:none;stroke-opacity:1"
             d="m 0,0 c 0,11.83 -9.454,21.421 -21.116,21.421 -11.662,0 -21.117,-9.591 -21.117,-21.421 0,-11.83 9.455,-21.421 21.117,-21.421 C -9.454,-21.421 0,-11.83 0,0 Z" /></g><g
           transform="translate(57.6732,37.9998)"
           id="g64"><path
             id="path66"
             style="fill:none;stroke:#544c4d;stroke-width:0.55500001;stroke-linecap:round;stroke-linejoin:round;stroke-miterlimit:10;stroke-dasharray:none;stroke-opacity:1"
             d="m 0,0 c 0,12.702 -10.151,23 -22.673,23 -12.522,0 -22.673,-10.298 -22.673,-23 0,-12.702 10.151,-23 22.673,-23 C -10.151,-23 0,-12.702 0,0 Z" /></g><g
           transform="translate(37.9613,38.6656)"
           id="g68"><path
             id="path70"
             style="fill:none;stroke:#544c4d;stroke-width:0.55500001;stroke-linecap:round;stroke-linejoin:round;stroke-miterlimit:10;stroke-dasharray:none;stroke-opacity:1"
             d="m 0,0 c 0,0 -2.961,5.327 0.988,8.375 3.656,2.822 3.032,7.036 2.69,7.537" /></g><g
           transform="translate(39.4012,47.4185)"
           id="g72"><path
             id="path74"
             style="fill:none;stroke:#544c4d;stroke-width:0.55500001;stroke-linecap:round;stroke-linejoin:round;stroke-miterlimit:10;stroke-dasharray:none;stroke-opacity:1"
             d="M 0,0 C 0,0 0.603,2.417 -1.36,4.359" /></g><g
           transform="translate(30.1709,51.1402)"
           id="g76"><path
             id="path78"
             style="fill:#abbd81;fill-opacity:1;fill-rule:nonzero;stroke:none"
             d="m 0,0 c 0,0 -3.182,-3.534 -6.269,0.504 0,0 2.844,4.571 6.269,-0.504" /></g><g
           transform="translate(30.1709,51.1402)"
           id="g80"><path
             id="path82"
             style="fill:none;stroke:#544c4d;stroke-width:0.55500001;stroke-linecap:round;stroke-linejoin:round;stroke-miterlimit:10;stroke-dasharray:none;stroke-opacity:1"
             d="m 0,0 c 0,0 -3.182,-3.534 -6.269,0.504 0,0 2.844,4.571 6.269,-0.504 z" /></g><g
           transform="translate(31.3159,50.2469)"
           id="g84"><path
             id="path86"
             style="fill:none;stroke:#544c4d;stroke-width:0.55500001;stroke-linecap:round;stroke-linejoin:round;stroke-miterlimit:10;stroke-dasharray:none;stroke-opacity:1"
             d="M 0,0 C 0,0 -1.593,1.899 -4.291,1.401" /></g><g
           transform="translate(40.4315,48.5333)"
           id="g88"><path
             id="path90"
             style="fill:none;stroke:#544c4d;stroke-width:0.55500001;stroke-linecap:round;stroke-linejoin:round;stroke-miterlimit:10;stroke-dasharray:none;stroke-opacity:1"
             d="M 0,0 C 0,0 1.838,1.509 4.959,1.509" /></g><g
           transform="translate(47.3463,40.9285)"
           id="g92"><path
             id="path94"
             style="fill:none;stroke:#544c4d;stroke-width:0.55500001;stroke-linecap:round;stroke-linejoin:round;stroke-miterlimit:10;stroke-dasharray:none;stroke-opacity:1"
             d="M 0,0 C 0,0 -0.102,2.396 1.755,4.941" /></g><g
           transform="translate(43.0821,46.1742)"
           id="g96"><path
             id="path98"
             style="fill:none;stroke:#544c4d;stroke-width:0.55500001;stroke-linecap:round;stroke-linejoin:round;stroke-miterlimit:10;stroke-dasharray:none;stroke-opacity:1"
             d="M 0,0 C 0.27,-1.573 -2.025,-1.115 -1.836,0.396 -1.648,1.899 -0.125,1.832 0.822,1.201 2.27,0.238 2.392,-1.571 1.529,-3.005 1.164,-3.612 -0.638,-5.173 -1.299,-4.886" /></g><g
           transform="translate(32.9919,42.0187)"
           id="g100"><path
             id="path102"
             style="fill:none;stroke:#544c4d;stroke-width:0.55500001;stroke-linecap:round;stroke-linejoin:round;stroke-miterlimit:10;stroke-dasharray:none;stroke-opacity:1"
             d="M 0,0 C 0.879,0.08 1.206,1.334 1.209,2.105 1.214,3.237 0.831,4.09 0.114,4.958 c -1.131,1.368 -2.762,3.468 -1.041,5.05 0.78,0.716 2.052,0.623 2.345,-0.515 C 1.642,8.622 0.671,7.177 0,8.203" /></g><g
           transform="translate(37.2733,44.8592)"
           id="g104"><path
             id="path106"
             style="fill:none;stroke:#544c4d;stroke-width:0.55500001;stroke-linecap:round;stroke-linejoin:round;stroke-miterlimit:10;stroke-dasharray:none;stroke-opacity:1"
             d="M 0,0 C 0.192,0.943 0.568,2.696 -1.244,2.761 -2.347,2.8 -2.055,0.866 -1.225,1.358" /></g><g
           transform="translate(31.946,51.9094)"
           id="g108"><path
             id="path110"
             style="fill:none;stroke:#544c4d;stroke-width:0.55500001;stroke-linecap:round;stroke-linejoin:round;stroke-miterlimit:10;stroke-dasharray:none;stroke-opacity:1"
             d="M 0,0 C 0,0 0.948,1.532 0.402,3.401" /></g><g
           transform="translate(26.371,44.468)"
           id="g112"><path
             id="path114"
             style="fill:#abbd81;fill-opacity:1;fill-rule:nonzero;stroke:none"
             d="M 0,0 C 0,0 -2.976,1.839 -0.493,4.192 -0.493,4.192 3.033,2.807 0,0" /></g><g
           transform="translate(26.371,44.468)"
           id="g116"><path
             id="path118"
             style="fill:none;stroke:#544c4d;stroke-width:0.55500001;stroke-linecap:round;stroke-linejoin:round;stroke-miterlimit:10;stroke-dasharray:none;stroke-opacity:1"
             d="M 0,0 C 0,0 -2.976,1.839 -0.493,4.192 -0.493,4.192 3.033,2.807 0,0 Z" /></g><g
           transform="translate(25.8779,43.0795)"
           id="g120"><path
             id="path122"
             style="fill:none;stroke:#544c4d;stroke-width:0.55500001;stroke-linecap:round;stroke-linejoin:round;stroke-miterlimit:10;stroke-dasharray:none;stroke-opacity:1"
             d="M 0,0 C 0,0 0.948,1.532 0.402,3.401" /></g><g
           transform="translate(21.7201,44.9141)"
           id="g124"><path
             id="path126"
             style="fill:#abbd81;fill-opacity:1;fill-rule:nonzero;stroke:none"
             d="M 0,0 C 0,0 4.028,2.489 0.667,5.674 0.667,5.674 -4.105,3.799 0,0" /></g><g
           transform="translate(21.7201,44.9141)"
           id="g128"><path
             id="path130"
             style="fill:none;stroke:#544c4d;stroke-width:0.55500001;stroke-linecap:round;stroke-linejoin:round;stroke-miterlimit:10;stroke-dasharray:none;stroke-opacity:1"
             d="M 0,0 C 0,0 4.028,2.489 0.667,5.674 0.667,5.674 -4.105,3.799 0,0 Z" /></g><g
           transform="translate(22.3874,43.0352)"
           id="g132"><path
             id="path134"
             style="fill:none;stroke:#544c4d;stroke-width:0.55500001;stroke-linecap:round;stroke-linejoin:round;stroke-miterlimit:10;stroke-dasharray:none;stroke-opacity:1"
             d="M 0,0 C 0,0 -1.283,2.073 -0.544,4.602" /></g><g
           transform="translate(30.5985,42.8369)"
           id="g136"><path
             id="path138"
             style="fill:none;stroke:#544c4d;stroke-width:0.55500001;stroke-linecap:round;stroke-linejoin:round;stroke-miterlimit:10;stroke-dasharray:none;stroke-opacity:1"
             d="M 0,0 C 0.919,0.057 1.594,1.609 1.447,2.443 1.31,3.22 0.606,4.447 -0.219,4.597 -1.11,4.759 -1.978,4.136 -2.014,3.211 -2.074,1.692 0.114,1.998 -0.343,2.952" /></g><g
           transform="translate(19.4667,42.0242)"
           id="g140"><path
             id="path142"
             style="fill:none;stroke:#544c4d;stroke-width:0.55500001;stroke-linecap:round;stroke-linejoin:round;stroke-miterlimit:10;stroke-dasharray:none;stroke-opacity:1"
             d="M 0,0 C -1.288,-0.532 -3.383,1.239 -3.15,2.69 -2.935,4.029 -0.968,4.686 0.026,3.828 0.789,3.17 0.848,1.023 -0.516,1.097 -1.238,1.137 -1.955,3.002 -1.278,3.191" /></g></g></g><g
       id="g144"><g
         clip-path="url(#clipPath150)"
         id="g146"><g
           transform="translate(52.9146,16.4172)"
           id="g152"><path
             id="path154"
             style="fill:#abbd81;fill-opacity:1;fill-rule:nonzero;stroke:none"
             d="m 0,0 h -19.533 c 0,0 12.68,11.173 19.533,0" /></g><g
           transform="translate(52.9146,16.4172)"
           id="g156"><path
             id="path158"
             style="fill:none;stroke:#544c4d;stroke-width:0.43700001;stroke-linecap:round;stroke-linejoin:round;stroke-miterlimit:10;stroke-dasharray:none;stroke-opacity:1"
             d="m 0,0 h -19.533 c 0,0 12.68,11.173 19.533,0 z" /></g><g
           transform="translate(21.6668,16.4172)"
           id="g160"><path
             id="path162"
             style="fill:#859b87;fill-opacity:1;fill-rule:nonzero;stroke:none"
             d="M 0,0 H 27.694 C 27.694,0 9.717,15.841 0,0" /></g><g
           transform="translate(21.6668,16.4172)"
           id="g164"><path
             id="path166"
             style="fill:none;stroke:#544c4d;stroke-width:0.43700001;stroke-linecap:round;stroke-linejoin:round;stroke-miterlimit:10;stroke-dasharray:none;stroke-opacity:1"
             d="M 0,0 H 27.694 C 27.694,0 9.717,15.841 0,0 Z" /></g><g
           transform="translate(15.9714,16.4172)"
           id="g168"><path
             id="path170"
             style="fill:#abbd81;fill-opacity:1;fill-rule:nonzero;stroke:none"
             d="M 0,0 H 19.533 C 19.533,0 6.853,11.173 0,0" /></g><g
           transform="translate(15.9714,16.4172)"
           id="g172"><path
             id="path174"
             style="fill:none;stroke:#544c4d;stroke-width:0.43700001;stroke-linecap:round;stroke-linejoin:round;stroke-miterlimit:10;stroke-dasharray:none;stroke-opacity:1"
             d="M 0,0 H 19.533 C 19.533,0 6.853,11.173 0,0 Z" /></g></g></g><g
       id="g176"><g
         clip-path="url(#clipPath182)"
         id="g178"><g
           transform="translate(58.5839,29.44)"
           id="g184"><path
             id="path186"
             style="fill:#f4f0eb;fill-opacity:1;fill-rule:nonzero;stroke:none"
             d="M 0,0 V 12.869 H 8.916 L 6.802,6.434 8.916,0 Z" /></g><g
           transform="translate(58.5839,29.44)"
           id="g188"><path
             id="path190"
             style="fill:none;stroke:#544c4d;stroke-width:0.55500001;stroke-linecap:round;stroke-linejoin:round;stroke-miterlimit:10;stroke-dasharray:none;stroke-opacity:1"
             d="M 0,0 V 12.869 H 8.916 L 6.802,6.434 8.916,0 Z" /></g><g
           transform="translate(11.4161,29.44)"
           id="g192"><path
             id="path194"
             style="fill:#f4f0eb;fill-opacity:1;fill-rule:nonzero;stroke:none"
             d="M 0,0 V 12.869 H -8.916 L -6.802,6.434 -8.916,0 Z" /></g><g
           transform="translate(11.4161,29.44)"
           id="g196"><path
             id="path198"
             style="fill:none;stroke:#544c4d;stroke-width:0.55500001;stroke-linecap:round;stroke-linejoin:round;stroke-miterlimit:10;stroke-dasharray:none;stroke-opacity:1"
             d="M 0,0 V 12.869 H -8.916 L -6.802,6.434 -8.916,0 Z" /></g><path
           id="path200"
           style="fill:#f4f0eb;fill-opacity:1;fill-rule:nonzero;stroke:#544c4d;stroke-width:0.55500001;stroke-linecap:round;stroke-linejoin:round;stroke-miterlimit:10;stroke-dasharray:none;stroke-opacity:1"
           d="M 61.25,31.566 H 8.751 V 44.435 H 61.25 Z" /><g
           transform="translate(61.2496,31.5656)"
           id="g202"><path
             id="path204"
             style="fill:#544c4d;fill-opacity:1;fill-rule:nonzero;stroke:none"
             d="M 0,0 -2.666,-2.126 V 0 Z" /></g><g
           transform="translate(61.2496,31.5656)"
           id="g206"><path
             id="path208"
             style="fill:none;stroke:#544c4d;stroke-width:0.55500001;stroke-linecap:round;stroke-linejoin:round;stroke-miterlimit:10;stroke-dasharray:none;stroke-opacity:1"
             d="M 0,0 -2.666,-2.126 V 0 Z" /></g><g
           transform="translate(8.7504,31.5656)"
           id="g210"><path
             id="path212"
             style="fill:#544c4d;fill-opacity:1;fill-rule:nonzero;stroke:none"
             d="M 0,0 2.666,-2.126 V 0 Z" /></g><g
           transform="translate(8.7504,31.5656)"
           id="g214"><path
             id="path216"
             style="fill:none;stroke:#544c4d;stroke-width:0.55500001;stroke-linecap:round;stroke-linejoin:round;stroke-miterlimit:10;stroke-dasharray:none;stroke-opacity:1"
             d="M 0,0 2.666,-2.126 V 0 Z" /></g></g></g><text
       id="text220"
       style="font-variant:normal;font-weight:bold;font-stretch:normal;font-size:9.28670025px;font-family:'Myriad Pro';-inkscape-font-specification:Aller-Bold;writing-mode:lr-tb;fill:#544c4d;fill-opacity:1;fill-rule:nonzero;stroke:none"
       transform="matrix(0.98577536,0,0,-1,16.8511,34.2163)"><tspan
         id="tspan218"
         y="0"
         x="0 6.3985362 11.422641 17.421848 23.10531 29.215958 31.43548">ORGANIC</tspan></text>
</g></svg>